<?xml version="1.0" standalone="no"?>
<!DOCTYPE svg PUBLIC "-//W3C//DTD SVG 1.1//EN" "http://www.w3.org/Graphics/SVG/1.1/DTD/svg11.dtd" >
<svg xmlns="http://www.w3.org/2000/svg">
<metadata></metadata>
<defs>
<font id="altisbook_italic" horiz-adv-x="1214" >
<font-face units-per-em="2048" ascent="1602" descent="-446" />
<missing-glyph horiz-adv-x="491" />
<glyph unicode="&#xfb01;" horiz-adv-x="1161" d="M53 -387l191 1372h-138l7 41l143 61q-23 63 -23 117q0 148 105 239t248 91q142 0 194 -70l-20 -147q-19 41 -61.5 68.5t-106.5 27.5q-91 0 -149 -58t-58 -153q0 -56 23 -100h618l-137 -887q-17 -106 67 -106q64 0 107 61l-19 -141q-51 -45 -141 -45q-100 0 -142 61 t-24 170l121 770h-461l-192 -1372h-152zM891 1348q0 47 27.5 73.5t74.5 26.5q40 0 61 -18t21 -50q0 -47 -28 -72.5t-76 -25.5q-80 0 -80 66z" />
<glyph unicode="&#xfb02;" horiz-adv-x="1212" d="M51 -387l193 1366h-140l7 47l143 61q-21 69 -21 117q0 148 105 239t248 91q134 0 194 -70l-22 -147q-17 40 -60 68t-106 28q-91 0 -150 -58t-59 -153q0 -48 23 -100h221l-17 -123h-215l-190 -1366h-154zM741 217l181 1286h151l-178 -1272q-18 -137 96 -137q80 0 133 68 l-18 -127q-56 -68 -172 -68q-114 0 -162.5 65t-30.5 185z" />
<glyph unicode="&#xfb03;" horiz-adv-x="1771" d="M53 -387l191 1372h-138l7 41l143 61q-23 63 -23 117q0 148 105 239t248 91q142 0 194 -70l-20 -147q-19 41 -61.5 68.5t-106.5 27.5q-91 0 -149 -58t-58 -153q0 -56 23 -100h454q-18 52 -18 102q0 148 104.5 239t247.5 91q135 0 195 -70l-23 -147q-17 40 -60 68t-106 28 q-91 0 -150 -58t-59 -153q0 -48 23 -100h620l-137 -887q-17 -106 68 -106q61 0 104 61l-18 -141q-51 -45 -142 -45q-96 0 -139 59t-24 172l118 770h-460l-191 -1372h-153l192 1372h-457l-192 -1372h-152zM1501 1348q0 47 27.5 73.5t73.5 26.5q81 0 81 -68q0 -47 -28 -72.5 t-76 -25.5q-78 0 -78 66z" />
<glyph unicode="&#xfb04;" horiz-adv-x="1822" d="M53 -387l191 1372h-138l7 41l143 61q-23 63 -23 117q0 148 105 239t248 91q142 0 194 -70l-20 -147q-19 41 -61.5 68.5t-106.5 27.5q-91 0 -149 -58t-58 -153q0 -56 23 -100h454q-18 52 -18 102q0 148 104.5 239t247.5 91q135 0 195 -70l-23 -147q-17 42 -58 69t-108 27 q-94 0 -151.5 -57.5t-57.5 -153.5q0 -48 23 -100h221l-16 -117h-215l-191 -1372h-153l192 1372h-457l-192 -1372h-152zM1352 217l180 1286h151l-178 -1272q-18 -137 97 -137q80 0 133 68l-19 -127q-56 -68 -172 -68q-114 0 -162 65t-30 185z" />
<glyph horiz-adv-x="0" />
<glyph horiz-adv-x="682" />
<glyph unicode=" "  horiz-adv-x="491" />
<glyph unicode="&#x09;" horiz-adv-x="491" />
<glyph unicode="&#xa0;" horiz-adv-x="491" />
<glyph unicode="!" horiz-adv-x="493" d="M70 53q0 52 33 87.5t83 35.5q40 0 64 -24t24 -62q0 -52 -35 -86.5t-83 -34.5q-39 0 -62.5 23.5t-23.5 60.5zM145 373l121 985h170l-155 -985h-136z" />
<glyph unicode="&#x22;" horiz-adv-x="645" d="M217 1343l4 33q3 34 28.5 58t61.5 24q35 0 54 -24t14 -58l-4 -33l-88 -307h-66zM471 1343l4 33q5 35 30.5 58.5t61.5 23.5q33 0 53 -24t15 -58l-4 -33l-90 -307h-66z" />
<glyph unicode="#" horiz-adv-x="1366" d="M51 432l25 76h311l119 377h-311l22 78h313l134 421h88l-134 -421h322l133 421h88l-133 -421h309l-22 -78h-311l-117 -377h309l-25 -76h-309l-135 -432h-88l135 432h-321l-136 -432h-88l136 432h-314zM477 508h320l118 377h-321z" />
<glyph unicode="$" horiz-adv-x="1052" d="M41 186l22 152q31 -57 131 -98t228 -41q165 0 256.5 56.5t91.5 170.5q0 31 -11 55.5t-28 40.5t-44 29.5t-51 21t-58 15.5l-181 41q-114 26 -177.5 82t-63.5 163q0 143 89 234t249 121l24 170h74l-23 -160q58 4 86 4q29 0 43 -2l25 158h72l-23 -164q91 -14 153 -43.5 t87 -61.5l-23 -151q-30 56 -126 96.5t-226 40.5q-332 0 -332 -205q0 -37 14 -64t41 -44t55.5 -26.5t69.5 -18.5l177 -39q62 -14 106.5 -32t83.5 -46.5t58.5 -72t19.5 -101.5q0 -138 -83.5 -235.5t-236.5 -135.5l-24 -188h-74l25 174q-55 -8 -131 -8l-23 -166h-74l23 168 q-110 10 -187.5 42t-103.5 68z" />
<glyph unicode="%" horiz-adv-x="1443" d="M135 977q0 125 31 217.5t83.5 143.5t111 74.5t124.5 23.5q87 0 154 -39q67 -40 121.5 -56t142.5 -16q178 0 293 111l70 -41l-963 -1395h-102l889 1290q-86 -49 -197 -49q-107 0 -180 33q22 -46 22 -113q0 -124 -31 -215.5t-83.5 -140.5t-111 -71.5t-124.5 -22.5 q-250 0 -250 266zM250 985q0 -176 147 -176q97 0 160.5 85t63.5 265q0 178 -148 178q-95 0 -159 -87.5t-64 -264.5zM735 233q0 125 30.5 217.5t83 143.5t111.5 74.5t125 23.5q115 0 182.5 -63t67.5 -205q0 -101 -20.5 -181.5t-54.5 -131t-80.5 -84t-94.5 -47t-100 -13.5 q-114 0 -182 62t-68 204zM850 242q0 -176 149 -176q95 0 158.5 86t63.5 266q0 176 -148 176q-95 0 -159 -87t-64 -265z" />
<glyph unicode="&#x26;" horiz-adv-x="1505" d="M47 334q0 90 32 168t86 131.5t115 90.5t128 58q-129 94 -129 236q0 163 133 267t338 104q111 0 183.5 -32.5t96.5 -70.5l-22 -170q-29 53 -102 95t-171 42q-144 0 -221.5 -64t-77.5 -165q0 -53 28 -95t91 -102l90 -84l-4 -36h-154q-51 -17 -96.5 -43.5t-89 -66t-69 -98.5 t-25.5 -128q0 -128 101.5 -197.5t295.5 -69.5q119 0 221 30t182 90t125.5 159t45.5 227q0 50 -19 99h-166l19 135h485l-18 -135h-168q16 -39 16 -93q-1 -156 -64 -282t-168.5 -204.5t-239 -120.5t-282.5 -42q-254 0 -390 93.5t-136 273.5z" />
<glyph unicode="'" horiz-adv-x="391" d="M217 1343l4 33q3 34 28.5 58t61.5 24q35 0 54 -24t14 -58l-4 -33l-88 -307h-66z" />
<glyph unicode="(" horiz-adv-x="645" d="M74 440q0 188 64.5 381.5t186.5 354t275 239.5h145q-154 -77 -275.5 -228t-190 -347.5t-68.5 -401.5q0 -227 80.5 -408.5t220.5 -267.5h-143q-139 86 -217 271t-78 407z" />
<glyph unicode=")" horiz-adv-x="643" d="M-102 -240q231 119 380.5 393.5t149.5 583.5q0 227 -81.5 409t-219.5 267h143q139 -84 216 -268.5t77 -407.5q0 -188 -64 -382t-185.5 -355t-274.5 -240h-141z" />
<glyph unicode="*" horiz-adv-x="874" d="M164 1030l268 146l-229 139l71 88l205 -148l27 269h108l-43 -267l244 146l47 -82l-268 -147l227 -144l-71 -86l-203 146l-29 -263h-108l43 263l-244 -148z" />
<glyph unicode="+" horiz-adv-x="1112" d="M90 641l19 135h401l57 404h135l-57 -404h404l-19 -135h-403l-58 -408h-135l58 408h-402z" />
<glyph unicode="," horiz-adv-x="366" d="M-70 -297q108 151 133 277q-53 18 -53 75q0 54 34 87.5t85 33.5q40 0 63 -23t23 -67q0 -95 -71.5 -215t-139.5 -182z" />
<glyph unicode="-" horiz-adv-x="770" d="M119 549l16 131h518l-18 -131h-516z" />
<glyph unicode="." horiz-adv-x="364" d="M10 53q0 52 33.5 87.5t83.5 35.5q40 0 64 -24t24 -62q0 -52 -34.5 -86.5t-84.5 -34.5q-39 0 -62.5 23.5t-23.5 60.5z" />
<glyph unicode="/" horiz-adv-x="1198" d="M-57 -162l1226 1729h119l-1227 -1729h-118z" />
<glyph unicode="0" horiz-adv-x="1468" d="M100 524q0 161 42 301t114 242t167 175.5t203 110t220 36.5q260 0 402.5 -142t142.5 -407q0 -161 -41.5 -302.5t-113 -244.5t-166 -177.5t-203 -111.5t-222.5 -37q-258 0 -401.5 145.5t-143.5 411.5zM260 547q0 -215 107.5 -331t296.5 -116q111 0 212 48t180 137 t126 227.5t47 306.5q0 213 -105.5 325.5t-296.5 112.5q-109 0 -210 -47t-181 -133.5t-128 -224t-48 -305.5z" />
<glyph unicode="1" horiz-adv-x="706" d="M102 1061l19 129q141 0 248 43t196 137h74l-193 -1370h-147l164 1176q-121 -115 -361 -115z" />
<glyph unicode="2" horiz-adv-x="1007" d="M29 0v18l471 500q64 67 106 116.5t89.5 118t71.5 139t24 140.5q0 105 -63 163t-191 58q-115 0 -221.5 -54.5t-172.5 -135.5l25 154q60 73 167.5 122.5t242.5 49.5q184 0 274 -84t90 -236q0 -76 -23 -154t-57 -141.5t-88.5 -134.5t-100 -120.5t-108.5 -112.5l-264 -265 h551l-18 -141h-805z" />
<glyph unicode="3" horiz-adv-x="1036" d="M25 51l20 156q94 -111 287 -111q203 0 311.5 91.5t108.5 248.5q0 109 -86 165t-279 56h-55l2 17l452 549h-596l21 135h805l-2 -19l-469 -571q185 -14 277.5 -87.5t92.5 -215.5q0 -76 -22.5 -147t-70 -135t-115.5 -112t-166 -76t-215 -28q-192 0 -301 84z" />
<glyph unicode="4" horiz-adv-x="1114" d="M2 313l4 21l537 1024h145l-467 -903h506l76 551h145l-78 -551h168l-18 -142h-168l-43 -313h-145l45 313h-707z" />
<glyph unicode="5" horiz-adv-x="1044" d="M29 51l20 156q42 -44 118.5 -77.5t184.5 -33.5q197 0 302.5 95t105.5 249q0 104 -75.5 156.5t-235.5 52.5q-87 0 -168.5 -20t-126.5 -51l137 780h719l-19 -135h-588l-81 -488q25 17 84.5 30t117.5 13q195 0 297.5 -76t102.5 -225q0 -223 -159.5 -366.5t-416.5 -143.5 q-211 0 -319 84z" />
<glyph unicode="6" horiz-adv-x="1107" d="M74 383q0 141 40.5 275.5t108.5 242.5t158 200t188.5 155.5t200.5 101.5h221v-8q-215 -67 -397.5 -212.5t-274.5 -365.5q136 125 324 125q184 0 279.5 -94.5t95.5 -263.5q0 -161 -68 -291t-193.5 -205.5t-285.5 -75.5q-193 0 -295 112.5t-102 303.5zM227 391 q0 -135 68.5 -212t200.5 -77q163 0 264.5 113t101.5 293q0 125 -67 193.5t-201 68.5q-207 0 -334 -152q-33 -100 -33 -227z" />
<glyph unicode="7" horiz-adv-x="882" d="M117 1223l18 135h830l-2 -19l-656 -1339h-151l602 1223h-641z" />
<glyph unicode="8" horiz-adv-x="1155" d="M68 289q0 157 89 263.5t244 143.5q-96 27 -151 95.5t-55 171.5q0 197 140.5 311.5t364.5 114.5q183 0 281 -79t98 -223q0 -152 -81.5 -250t-215.5 -137q115 -25 175.5 -98t60.5 -184q0 -196 -145.5 -323.5t-395.5 -127.5q-206 0 -307.5 87t-101.5 235zM223 322 q0 -102 70 -161t211 -59q176 0 270 87t94 227q0 101 -70 158t-214 57q-172 0 -266.5 -85t-94.5 -224zM340 961q0 -97 66 -149t190 -52q151 0 242.5 77.5t91.5 213.5q0 99 -66.5 151.5t-191.5 52.5q-151 0 -241.5 -78t-90.5 -216z" />
<glyph unicode="9" horiz-adv-x="1110" d="M113 819q0 161 68.5 291t193.5 204.5t284 74.5q193 0 295.5 -111.5t102.5 -302.5q0 -139 -39.5 -272.5t-106.5 -242t-155 -201t-185.5 -157.5t-197.5 -102h-234v8q80 25 156.5 60t154 86.5t143 113.5t123 143t95.5 173q-130 -123 -324 -123q-184 0 -279 94.5t-95 263.5z M268 846q0 -123 67.5 -191.5t201.5 -68.5q204 0 333 151q33 100 33 230q0 135 -68 211.5t-200 76.5q-164 0 -265.5 -113.5t-101.5 -295.5z" />
<glyph unicode=":" horiz-adv-x="479" d="M66 53q0 52 33 87.5t83 35.5q40 0 64 -24t24 -62q0 -52 -34 -86.5t-84 -34.5q-39 0 -62.5 23.5t-23.5 60.5zM178 858q0 52 33.5 87.5t83.5 35.5q40 0 64 -24t24 -62q0 -52 -34.5 -86.5t-84.5 -34.5q-39 0 -62.5 23.5t-23.5 60.5z" />
<glyph unicode=";" horiz-adv-x="524" d="M6 -297q108 151 133 277q-53 18 -53 75q0 54 34 87.5t85 33.5q40 0 63 -23t23 -67q0 -95 -71.5 -215t-139.5 -182zM190 858q0 52 33.5 87.5t83.5 35.5q40 0 64 -24t24 -62q0 -52 -34.5 -86.5t-84.5 -34.5q-39 0 -62.5 23.5t-23.5 60.5z" />
<glyph unicode="&#x3c;" horiz-adv-x="1060" d="M72 670v10l936 534l-21 -153l-688 -391l578 -391l-21 -144z" />
<glyph unicode="=" horiz-adv-x="1161" d="M117 414l20 129h867l-19 -129h-868zM180 846l17 129h868l-18 -129h-867z" />
<glyph unicode="&#x3e;" horiz-adv-x="1062" d="M72 135l20 144l688 391l-577 391l20 153l787 -534l-2 -10z" />
<glyph unicode="?" horiz-adv-x="909" d="M145 1065l23 168q52 69 159.5 112.5t231.5 43.5q161 0 247.5 -72t86.5 -197q0 -67 -17.5 -124.5t-56 -110t-70.5 -86t-90 -86.5q-81 -76 -127 -149t-57 -165l-4 -39h-154l7 37q23 133 81 221t162 183q81 74 120.5 136t39.5 146q0 77 -52.5 123.5t-160.5 46.5t-212 -52 t-157 -136zM252 53q0 52 33.5 87.5t83.5 35.5q40 0 64 -24t24 -62q0 -52 -34.5 -86.5t-82.5 -34.5q-41 0 -64.5 23.5t-23.5 60.5z" />
<glyph unicode="@" horiz-adv-x="1843" d="M74 446q0 156 36.5 293t101.5 242.5t154.5 188.5t197 136t227 81t245.5 28q161 0 295 -42t234 -122.5t155.5 -208t55.5 -290.5q0 -183 -52.5 -339.5t-154.5 -255t-232 -98.5q-98 0 -160 57t-61 148q-24 -61 -97.5 -107t-174.5 -46q-152 0 -238 96.5t-86 281.5 q0 247 130 400t327 153q157 0 225 -110l21 82h104l-102 -701q-11 -72 24 -117.5t107 -45.5q127 0 221 164t94 429q0 145 -47.5 257t-134.5 182.5t-204 106.5t-259 36q-135 0 -259 -34t-231.5 -105t-186.5 -172.5t-124 -244.5t-45 -312q0 -295 175 -473.5t456 -178.5 q228 0 379 72l-14 -102q-145 -64 -379 -64q-156 0 -289.5 52t-229 146.5t-150 233t-54.5 303.5zM651 496q0 -135 58.5 -210t171.5 -75q88 0 144.5 42t82.5 107l70 488q-56 96 -185 96q-162 0 -252 -124.5t-90 -323.5z" />
<glyph unicode="A" d="M-61 0l684 1233l-29 125h160l360 -1358h-162l-88 332h-596l-180 -332h-149zM332 449h502l-144 550l-16 84l-41 -84z" />
<glyph unicode="B" horiz-adv-x="1193" d="M88 0l191 1358h387q238 0 347 -68t109 -203q0 -159 -89.5 -255.5t-248.5 -120.5v-6q134 -14 202.5 -75t68.5 -179q0 -99 -32 -179t-98 -142t-175.5 -96t-255.5 -34h-406zM262 129h254q385 0 385 311q0 101 -73.5 150t-241.5 49h-252zM352 764h236q377 0 377 285 q0 94 -73.5 137t-238.5 43h-235z" />
<glyph unicode="C" horiz-adv-x="1189" d="M102 504q0 174 40 320.5t108.5 249t160 175t195 106.5t213.5 34q258 0 365 -119l-25 -178q-88 161 -338 161q-115 0 -214.5 -44.5t-177.5 -131t-122.5 -226t-44.5 -316.5q0 -216 103.5 -324.5t296.5 -108.5q241 0 380 158l-20 -158q-147 -135 -397 -135 q-249 0 -386 133.5t-137 403.5z" />
<glyph unicode="D" horiz-adv-x="1345" d="M88 0l191 1358h366q305 0 462 -122t157 -392q0 -181 -44 -326t-119 -240.5t-179.5 -159t-220 -91t-246.5 -27.5h-367zM262 135h211q304 0 467.5 168t163.5 518q0 209 -114.5 305.5t-362.5 96.5h-211z" />
<glyph unicode="E" horiz-adv-x="1114" d="M88 0l191 1358h845l-18 -135h-690l-66 -461h451l-17 -125h-450l-72 -502h690l-18 -135h-846z" />
<glyph unicode="F" horiz-adv-x="1062" d="M88 0l191 1358h817l-19 -135h-661l-68 -478h440l-16 -120h-440l-86 -625h-158z" />
<glyph unicode="G" horiz-adv-x="1284" d="M100 514q0 172 42 317.5t113.5 247t166.5 172.5t201 104.5t217 33.5q288 0 401 -140l-24 -178q-103 182 -379 182q-117 0 -219.5 -44.5t-183.5 -130t-128 -224t-47 -313.5q0 -218 108 -332.5t294 -114.5q146 0 270 60l61 436h156l-70 -510q-195 -113 -442 -113 q-248 0 -392.5 137t-144.5 410z" />
<glyph unicode="H" horiz-adv-x="1384" d="M88 0l191 1358h155l-84 -594h725l84 594h156l-191 -1358h-155l88 629h-725l-86 -629h-158z" />
<glyph unicode="I" horiz-adv-x="503" d="M88 0l191 1358h155l-188 -1358h-158z" />
<glyph unicode="J" horiz-adv-x="845" d="M-14 68l26 176q31 -62 87.5 -101t129.5 -39q117 0 180.5 62.5t84.5 206.5l120 850h-331l18 135h487l-141 -1006q-55 -385 -416 -385q-86 0 -150 29.5t-95 71.5z" />
<glyph unicode="K" horiz-adv-x="1216" d="M88 0l191 1358h155l-102 -731l772 731h164l-563 -531l399 -827h-170l-338 723l-289 -272l-61 -451h-158z" />
<glyph unicode="L" horiz-adv-x="964" d="M88 0l191 1358h155l-170 -1223h590l-18 -135h-748z" />
<glyph unicode="M" horiz-adv-x="1593" d="M88 0l191 1358h147l381 -752l571 752h146l-189 -1358h-157l155 1110l-565 -733h-2l-367 733l-153 -1110h-158z" />
<glyph unicode="N" horiz-adv-x="1370" d="M90 0l174 1253l-57 105h180l619 -1084h4l151 1084h139l-188 -1358h-117l-612 1071h-4l-150 -1071h-139z" />
<glyph unicode="O" horiz-adv-x="1458" d="M98 508q0 173 43.5 320t116.5 248.5t169.5 173.5t201 105.5t211.5 33.5q254 0 397 -139t143 -408q0 -144 -30.5 -270t-84.5 -220.5t-125 -169t-154.5 -121t-171 -70.5t-175.5 -24q-255 0 -398 135.5t-143 405.5zM260 535q0 -218 103.5 -325.5t295.5 -107.5 q109 0 208.5 45.5t179 132t127 225.5t47.5 312q0 216 -104.5 327t-295.5 111q-88 0 -170 -28t-153.5 -87t-124 -143t-83 -203t-30.5 -259z" />
<glyph unicode="P" horiz-adv-x="1148" d="M88 0l191 1358h366q257 0 374.5 -82.5t117.5 -249.5q0 -123 -38 -224.5t-113 -177t-194 -117.5t-272 -42h-131l17 121h131q218 0 328 107t110 298q0 124 -83.5 183t-264.5 59h-209l-172 -1233h-158z" />
<glyph unicode="Q" horiz-adv-x="1458" d="M100 506q0 173 43.5 319.5t116.5 248t169.5 173.5t201 105.5t211.5 33.5q254 0 397 -138.5t143 -407.5q0 -149 -33 -279t-90 -225.5t-134 -169.5t-163 -119t-180 -65l230 -273h-189l-202 256q-247 6 -384 141t-137 400zM262 532q0 -218 104 -325t296 -107q87 0 168 28 t152.5 87t125 142t84.5 201t31 257q0 216 -104.5 327t-295.5 111q-111 0 -210.5 -46t-178.5 -133t-125.5 -227.5t-46.5 -314.5z" />
<glyph unicode="R" horiz-adv-x="1146" d="M88 0l191 1358h356q450 0 450 -309q0 -214 -138.5 -350.5t-379.5 -149.5l465 -549h-184l-453 549h-73l-76 -549h-158zM336 662h201q188 0 288.5 96t100.5 258q0 110 -76 163.5t-234 53.5h-198z" />
<glyph unicode="S" horiz-adv-x="1032" d="M25 88l26 176q34 -69 120.5 -115.5t217.5 -46.5q164 0 263.5 84t99.5 226q0 85 -55 127.5t-165 70.5l-106 29q-126 32 -196 102.5t-70 196.5q0 208 144 329.5t372 121.5q138 0 222 -35.5t116 -83.5l-25 -176q-30 67 -118.5 113t-219.5 46q-153 0 -244.5 -72.5 t-91.5 -205.5q0 -84 49.5 -128t151.5 -69l105 -26q67 -17 116 -39.5t89 -57t60.5 -84.5t20.5 -116q0 -219 -148.5 -353.5t-393.5 -134.5q-138 0 -221.5 36.5t-118.5 84.5z" />
<glyph unicode="T" horiz-adv-x="1128" d="M131 1223l19 135h1036l-19 -135h-440l-170 -1223h-156l170 1223h-440z" />
<glyph unicode="U" horiz-adv-x="1409" d="M147 320q-5 38 -5 80q0 66 12 143l114 815h156l-115 -817q-9 -63 -9 -117q0 -142 62 -218q86 -104 275 -104q390 0 450 439l115 817h154l-115 -815q-21 -149 -78.5 -261.5t-142.5 -180t-188.5 -101t-223.5 -33.5q-99 0 -176.5 19t-140 61t-97 109.5t-47.5 163.5z" />
<glyph unicode="V" horiz-adv-x="1179" d="M127 1358h162l246 -1118h6l567 1118h152l-697 -1358h-129z" />
<glyph unicode="W" horiz-adv-x="1781" d="M145 1358h162l148 -1127h6l440 959l-31 168h154l201 -1127h4l471 1127h153l-596 -1358h-133l-180 1010l-465 -1010h-127z" />
<glyph unicode="X" horiz-adv-x="1118" d="M-49 0l538 705l-311 653h168l256 -531l391 531h160l-496 -641l342 -717h-168l-284 594l-436 -594h-160z" />
<glyph unicode="Y" horiz-adv-x="1112" d="M117 1358h174l287 -625l466 625h156l-569 -760l-84 -598h-156l84 598z" />
<glyph unicode="Z" horiz-adv-x="1019" d="M-14 0l4 39l831 1186h-655l18 133h856l-6 -39l-827 -1186h672l-19 -133h-874z" />
<glyph unicode="[" horiz-adv-x="655" d="M39 -242l235 1674h439l-15 -113h-315l-205 -1448h316l-15 -113h-440z" />
<glyph unicode="\" horiz-adv-x="1191" d="M178 1567h119l741 -1729h-118z" />
<glyph unicode="]" horiz-adv-x="653" d="M-61 -242l14 113h315l205 1448h-315l14 113h440l-235 -1674h-438z" />
<glyph unicode="^" horiz-adv-x="1003" d="M129 952l508 629h8l334 -629h-150l-223 424l-342 -424h-135z" />
<glyph unicode="_" horiz-adv-x="1646" d="M131 -295l16 123h1125l-19 -123h-1122z" />
<glyph unicode="`" horiz-adv-x="1044" d="M506 1503h149l193 -256h-143z" />
<glyph unicode="a" horiz-adv-x="1173" d="M80 442q0 310 153.5 501.5t387.5 191.5q97 0 166.5 -38.5t105.5 -103.5l25 107h124l-122 -879q-3 -20 -3 -37q-1 -32 11 -49q18 -26 61 -26q60 0 103 61l-19 -141q-45 -45 -137 -45q-77 0 -119 42t-43 124q-31 -75 -113 -129t-200 -54q-180 0 -280.5 121.5t-100.5 353.5z M240 451q0 -170 66.5 -264.5t197.5 -94.5q106 0 175 54.5t97 134.5l86 608q-28 53 -83 88t-136 35q-190 0 -296.5 -155.5t-106.5 -405.5z" />
<glyph unicode="b" horiz-adv-x="1150" d="M68 0l211 1503h151l-74 -522q44 66 126 110t192 44q187 0 284 -115t97 -346q0 -158 -42.5 -292t-116 -224t-173.5 -140.5t-213 -50.5q-98 0 -173.5 40t-113.5 106l-37 -113h-118zM252 229q31 -64 96.5 -101.5t149.5 -37.5q123 0 215 74.5t139 202t47 290.5 q0 353 -266 353q-108 0 -188.5 -59.5t-112.5 -141.5z" />
<glyph unicode="c" horiz-adv-x="985" d="M80 434q0 140 31.5 256.5t86 197.5t129 137.5t159.5 83t178 26.5q191 0 282 -117l-24 -166q-87 149 -277 149q-177 0 -291 -149t-114 -412q0 -338 286 -338q194 0 322 152l-25 -164q-49 -54 -131.5 -88.5t-193.5 -34.5q-196 0 -307 117t-111 350z" />
<glyph unicode="d" horiz-adv-x="1202" d="M80 444q0 157 43 288t117 218.5t174 136t213 48.5q91 0 166.5 -37.5t111.5 -96.5l70 502h151l-178 -1280q-3 -18 -2 -34q0 -80 70 -80q58 0 104 61l-18 -141q-51 -45 -137 -45q-164 0 -164 166v12q-33 -83 -123 -139t-215 -56q-187 0 -285 121t-98 356zM236 451 q0 -359 268 -359q109 0 189.5 61.5t111.5 143.5l80 575q-31 65 -96.5 102.5t-151.5 37.5q-185 0 -293 -156.5t-108 -404.5z" />
<glyph unicode="e" horiz-adv-x="1050" d="M82 455q0 156 45 286t121 215t174.5 132t206.5 47q165 0 256.5 -85t91.5 -235q0 -169 -134.5 -271t-369.5 -102q-134 0 -225 31q-2 -16 -2 -53q0 -153 83.5 -238.5t233.5 -85.5q219 0 328 162l-19 -154q-39 -56 -122 -96.5t-209 -40.5q-216 0 -337.5 123t-121.5 365z M252 582q84 -31 190 -31q187 0 284 66t97 192q0 91 -53.5 145t-157.5 54q-138 0 -239 -112t-121 -314z" />
<glyph unicode="f" horiz-adv-x="624" d="M51 -387l193 1366h-140l7 47l143 61q-21 69 -21 117q0 150 106.5 240t266.5 90q88 0 145 -22t76 -48l-20 -147q-19 40 -70 68t-123 28q-107 0 -169 -57t-62 -154q0 -48 23 -100h241l-16 -123h-236l-190 -1366h-154z" />
<glyph unicode="g" horiz-adv-x="1146" d="M29 -270l32 161q31 -80 122 -131t208 -51q177 0 262 86.5t115 288.5l16 113q-45 -67 -120.5 -110.5t-180.5 -43.5q-180 0 -284.5 121.5t-104.5 337.5q0 278 152 455.5t385 177.5q100 0 173.5 -44t106.5 -112l29 123h125l-147 -1036q-36 -251 -163.5 -367.5t-377.5 -116.5 q-124 0 -218 41.5t-130 106.5zM252 508q0 -155 71 -247.5t203 -92.5q107 0 176.5 51.5t102.5 132.5l74 520q-25 60 -87 100t-151 40q-125 0 -215 -70.5t-132 -182.5t-42 -251z" />
<glyph unicode="h" horiz-adv-x="1183" d="M68 0l208 1503h154l-76 -549q43 77 131.5 128t206.5 51q202 0 283 -124q54 -83 55 -213q0 -64 -14 -139l-80 -442q-4 -21 -4 -38q0 -68 65 -68q62 0 105 61l-19 -141q-40 -45 -135 -45q-94 0 -139 60q-31 41 -31 107q0 29 6 64l74 414q15 81 15 145q1 94 -31 148 q-52 92 -199 92q-111 0 -192 -57.5t-117 -139.5l-113 -817h-153z" />
<glyph unicode="i" horiz-adv-x="552" d="M121 977l18 125h279l-137 -887q-3 -18 -3 -33q0 -73 70 -73q64 0 107 61l-19 -141q-51 -45 -141 -45q-97 0 -141 59q-31 41 -31 109q0 29 6 63l123 762h-131zM281 1348q0 47 27.5 73.5t74.5 26.5q38 0 60 -18t22 -50q0 -46 -28.5 -72t-76.5 -26q-79 0 -79 66z" />
<glyph unicode="j" horiz-adv-x="505" d="M-256 -346l20 133q22 -33 62.5 -53.5t85.5 -20.5q81 0 127 41.5t59 130.5l156 1092h-137l18 125h285l-168 -1202q-21 -148 -103 -229t-221 -81q-61 0 -111 19.5t-73 44.5zM281 1348q0 47 27.5 73.5t74.5 26.5q38 0 60 -18t22 -50q0 -46 -28.5 -72t-76.5 -26q-79 0 -79 66 z" />
<glyph unicode="k" horiz-adv-x="1085" d="M68 0l208 1503h154l-78 -545q65 67 183.5 122t230.5 55q119 0 181.5 -61t62.5 -165q0 -224 -308 -389l250 -520h-161l-222 457q-121 -50 -301 -101l-47 -356h-153zM285 469q301 104 436 197t135 215q0 127 -141 127q-85 0 -201.5 -61t-179.5 -132z" />
<glyph unicode="l" horiz-adv-x="581" d="M111 217l180 1286h153l-178 -1272q-3 -20 -3 -36q0 -43 17 -67q23 -34 82 -34q79 0 132 68l-19 -127q-56 -68 -172 -68q-114 0 -162 65q-35 47 -35 124q0 28 5 61z" />
<glyph unicode="m" horiz-adv-x="1802" d="M68 0l153 1102h144l-11 -148q43 76 130 127.5t198 51.5q249 0 295 -209q46 95 136 152t212 57q201 0 275 -125q48 -81 49 -203q0 -67 -15 -148l-80 -442q-4 -21 -4 -37q0 -69 66 -69q61 0 104 61l-18 -141q-45 -45 -135 -45q-94 0 -139 60q-31 41 -31 107q0 29 6 64 l74 414q16 85 16 151q1 87 -27 140q-48 94 -192 94q-97 0 -170 -47t-115 -131v-16q0 -60 -12 -163l-90 -657h-154l88 629q12 87 12 153q-1 90 -23 142q-40 90 -177 90q-106 0 -185 -59.5t-114 -139.5l-113 -815h-153z" />
<glyph unicode="n" horiz-adv-x="1185" d="M68 0l153 1102h144l-11 -148q43 77 132.5 128t207.5 51q204 1 284 -123q54 -83 54 -213q0 -64 -14 -140l-80 -442q-4 -21 -4 -38q0 -68 65 -68q62 0 105 61l-19 -141q-40 -45 -135 -45q-96 0 -140 59q-31 41 -30 107q0 30 6 65l74 414q15 81 15 145q1 94 -31 148 q-52 92 -199 92q-112 0 -194.5 -59t-116.5 -140l-113 -815h-153z" />
<glyph unicode="o" horiz-adv-x="1146" d="M80 420q0 175 47.5 314.5t128 225t180.5 130.5t211 45q187 0 296.5 -112.5t109.5 -340.5q0 -141 -31 -260t-84.5 -202t-125.5 -140.5t-154 -85t-171 -27.5q-186 0 -296.5 112.5t-110.5 340.5zM236 428q0 -166 70 -250t202 -84q168 0 277.5 156t109.5 420q0 168 -68.5 253 t-199.5 85q-170 0 -280.5 -158t-110.5 -422z" />
<glyph unicode="p" horiz-adv-x="1153" d="M14 -387l209 1489h129l-12 -154q37 80 125 133.5t211 53.5q187 0 284 -115t97 -346q0 -158 -42.5 -292t-116 -224t-173.5 -140.5t-213 -50.5q-92 0 -167.5 38.5t-108.5 98.5l-70 -491h-152zM254 233q31 -66 96.5 -104.5t149.5 -38.5q123 0 215 74.5t139 202t47 290.5 q0 353 -266 353q-108 0 -188.5 -59.5t-112.5 -141.5z" />
<glyph unicode="q" horiz-adv-x="1153" d="M80 444q0 157 43 288t117 218.5t174 136t213 48.5q97 0 171.5 -40t114.5 -106l37 113h119l-209 -1489h-153l71 508q-46 -67 -126.5 -110.5t-188.5 -43.5q-187 0 -285 121t-98 356zM236 451q0 -359 268 -359q107 0 186.5 60.5t112.5 142.5l82 577q-31 65 -96.5 102.5 t-151.5 37.5q-185 0 -293 -156.5t-108 -404.5z" />
<glyph unicode="r" horiz-adv-x="694" d="M68 0l153 1102h135l-18 -219q34 119 113 184.5t167 65.5q40 0 64 -17t31 -39l-21 -147q-31 63 -100 63q-76 0 -152.5 -69t-117.5 -191l-101 -733h-153z" />
<glyph unicode="s" horiz-adv-x="909" d="M33 111l24 157q43 -76 124 -125t198 -49q124 0 192 51t68 146q0 69 -43.5 109t-130.5 73l-107 39q-239 87 -239 287q0 154 108 245t287 91q123 0 211.5 -40.5t122.5 -97.5l-21 -157q-36 75 -121.5 121.5t-197.5 46.5q-107 0 -175.5 -48.5t-68.5 -138.5q0 -72 43.5 -110.5 t130.5 -71.5l105 -39q56 -22 97 -45t75 -57t51.5 -80t17.5 -105q0 -159 -113 -252.5t-304 -93.5q-118 0 -209 45t-125 99z" />
<glyph unicode="t" horiz-adv-x="706" d="M98 979l6 47l144 76l149 254h56l-37 -254h289l-17 -123h-289l-102 -729q-3 -23 -3 -42q0 -114 109 -114t177 99l-21 -142q-29 -36 -83 -60t-124 -24q-216 0 -216 204q0 32 5 69l107 739h-150z" />
<glyph unicode="u" d="M106 977l19 125h285l-105 -653q-11 -66 -11 -120q0 -91 32 -149q50 -92 194 -92q107 0 185 58t110 139l117 817h151l-122 -887q-2 -16 -2 -30q0 -33 12 -51q17 -25 59 -25q60 0 103 61l-19 -141q-45 -45 -137 -45q-79 0 -123.5 42.5t-44.5 125.5q-39 -77 -129 -131 t-203 -54q-195 -1 -279 119q-59 84 -59 214q0 56 11 120l92 557h-136z" />
<glyph unicode="v" horiz-adv-x="1136" d="M106 977l19 125h285l-103 -651q-11 -81 -11 -147q0 -18 1 -36q4 -80 50.5 -127t137.5 -47q133 0 230 138t141 366q34 174 34 375q0 63 -3 129h157q2 -58 2 -114q0 -200 -30 -369q-40 -217 -119 -358.5t-189.5 -217.5t-240.5 -76q-194 0 -272 122q-53 83 -53 217 q0 63 12 138l86 533h-134z" />
<glyph unicode="w" horiz-adv-x="1597" d="M98 977l17 125h295l-99 -633q-14 -90 -14 -159q0 -216 141 -216q92 0 165 96.5t116.5 267.5t56.5 396h162l-47 -356q-16 -130 -16 -220q1 -88 31 -136q32 -48 98 -48q110 0 191 138t117 366q29 179 29 387q0 57 -2 117h156q3 -63 2 -123q0 -197 -27 -364 q-36 -218 -106.5 -358t-167.5 -215t-211 -75q-113 -1 -171 81q-55 77 -54 245v18q-50 -173 -141.5 -258.5t-198.5 -85.5q-166 1 -234 127q-42 79 -43 204q0 74 15 165l86 514h-146z" />
<glyph unicode="x" horiz-adv-x="1058" d="M-35 0l463 567l-178 410h-139l18 125h221l187 -426l333 426h158l-440 -537l162 -364q43 -99 112 -99q58 0 94 45l-18 -131q-41 -41 -123 -41q-125 0 -190 148l-144 328l-356 -451h-160z" />
<glyph unicode="y" horiz-adv-x="1167" d="M49 -270l33 161q31 -80 122 -131t208 -51q176 0 262 87t114 288l17 125q-38 -72 -125.5 -119t-192.5 -47q-195 0 -279 119q-59 82 -59 213q0 56 11 121l80 481h-138l19 125h289l-95 -580q-11 -65 -11 -118q0 -92 32 -150q51 -92 194 -92q106 0 184 58t111 138l105 744 h153l-145 -1036q-34 -250 -162 -367t-379 -117q-124 0 -218 41.5t-130 106.5z" />
<glyph unicode="z" horiz-adv-x="948" d="M-4 0l661 977h-538l16 125h760l-602 -899q102 -109 262 -109q192 0 279 160l-27 -182q-32 -48 -101 -76.5t-169 -28.5q-181 0 -312 135l-71 -102h-158z" />
<glyph unicode="{" horiz-adv-x="733" d="M12 549l15 98l69 8q167 19 187 170l47 336q43 301 311 301q86 0 145 -41l-16 -114q-43 43 -129 43q-78 0 -126 -47.5t-60 -139.5l-47 -334q-18 -117 -78 -168t-164 -61v-4q100 -10 146 -61.5t30 -167.5l-47 -338q-13 -97 16.5 -143t118.5 -46q79 0 141 43l-16 -112 q-66 -41 -158 -41q-143 0 -196 73t-31 228l49 340q10 75 -26.5 118.5t-112.5 51.5z" />
<glyph unicode="|" horiz-adv-x="434" d="M27 -305l256 1829h125l-256 -1829h-125z" />
<glyph unicode="}" horiz-adv-x="733" d="M-57 -229l16 112q49 -43 129 -43q89 0 132 46.5t56 142.5l48 338q16 116 77 167.5t164 61.5v4q-101 10 -147.5 61t-28.5 168l47 334q12 92 -23 139.5t-112 47.5q-87 0 -141 -43l14 114q74 41 160 41q268 0 225 -301l-47 -336q-20 -151 139 -170l68 -8l-14 -98l-70 -8 q-79 -8 -127.5 -51t-58.5 -119l-50 -340q-22 -155 -94.5 -228t-214.5 -73q-95 0 -147 41z" />
<glyph unicode="~" horiz-adv-x="1280" d="M115 522q22 161 103.5 247.5t215.5 86.5q82 0 143 -32t134 -93q52 -43 93.5 -65.5t86.5 -22.5q74 0 115.5 44t58.5 153h129q-23 -159 -105 -245.5t-212 -86.5q-60 0 -113 19.5t-83.5 41.5t-78.5 64q-54 44 -96 66t-86 22q-74 0 -118 -45.5t-58 -153.5h-129z" />
<glyph unicode="&#xa1;" horiz-adv-x="466" d="M29 -256l155 985h135l-120 -985h-170zM190 1012q0 51 35.5 86t83.5 35q39 0 62.5 -23.5t23.5 -60.5q0 -52 -33 -87.5t-83 -35.5q-40 0 -64.5 24t-24.5 62z" />
<glyph unicode="&#xa2;" horiz-adv-x="1052" d="M102 508q0 181 49 323t133.5 228t190.5 130t227 44q44 0 84 -6l64 172h70l-70 -187q109 -30 154 -106l-25 -170q-51 114 -176 151l-330 -878q36 -8 88 -8q219 0 346 168l-20 -158q-50 -61 -143.5 -102t-211.5 -41q-63 0 -110 8l-66 -178h-67l71 194q-124 39 -191 143.5 t-67 272.5zM260 528q0 -231 152 -299l325 871q-7 0 -23 1t-24 1q-192 0 -311 -149.5t-119 -424.5z" />
<glyph unicode="&#xa3;" horiz-adv-x="1193" d="M-6 6l20 141q22 -32 60 -32q73 0 96 90l98 387h-164l13 82h172l49 194q61 241 187 354t343 113q105 0 172 -34t99 -82l-25 -185q-70 160 -264 160q-153 0 -233.5 -79.5t-122.5 -246.5l-50 -194h404l-12 -82h-412l-86 -338l88 -47q190 -101 317 -101q97 0 173.5 48 t119.5 120l-24 -182q-101 -125 -314 -125q-160 0 -338 125l-59 41q-65 -160 -217 -160q-61 0 -90 33z" />
<glyph unicode="&#xa4;" horiz-adv-x="1198" d="M53 147l174 181q-39 77 -39 198q0 334 136 498l-121 182l69 51l117 -174q120 93 297 93q175 0 262 -84l158 165l55 -51l-168 -176q43 -82 43 -203q0 -337 -139 -505l117 -175l-70 -53l-113 166q-113 -84 -286 -84q-187 0 -275 88l-161 -170zM313 553q0 -132 58.5 -198 t187.5 -66q175 0 262.5 132t87.5 382q0 130 -56.5 195t-184.5 65q-173 0 -264 -132.5t-91 -377.5z" />
<glyph unicode="&#xa5;" horiz-adv-x="1208" d="M123 406l12 79h367l20 144h-368l12 82h330l-322 592h170l283 -533l438 533h156l-484 -592h328l-10 -82h-369l-20 -144h368l-10 -79h-369l-57 -406h-164l58 406h-369z" />
<glyph unicode="&#xa6;" horiz-adv-x="442" d="M31 -305l114 817h125l-114 -817h-125zM174 707l113 817h125l-113 -817h-125z" />
<glyph unicode="&#xa7;" horiz-adv-x="1064" d="M8 -199l21 164q35 -61 121.5 -100t205.5 -39q168 0 260.5 60.5t92.5 176.5q0 38 -17.5 66t-54.5 47.5t-73.5 31t-96.5 25.5l-98 23q-124 27 -194.5 88t-70.5 172q0 115 73.5 214.5t174.5 143.5q-141 65 -141 216q0 182 134 280t362 98q119 0 208.5 -31.5t120.5 -72.5 l-22 -162q-32 60 -120 98.5t-208 38.5q-330 0 -330 -211q0 -38 16 -65.5t49 -45.5t69 -29.5t92 -22.5l100 -23q136 -29 209.5 -87.5t73.5 -168.5q0 -126 -73 -224.5t-173 -146.5q141 -60 141 -204q0 -192 -143 -302t-389 -110q-120 0 -205.5 30.5t-114.5 71.5zM254 565 q0 -133 158 -166l125 -26q42 -10 79 -23q71 23 134 102.5t63 176.5q0 39 -13.5 68.5t-39.5 49t-54 31t-67 21.5l-129 28q-60 18 -66 21q-73 -26 -131.5 -104t-58.5 -179z" />
<glyph unicode="&#xa8;" horiz-adv-x="1044" d="M356 1354q0 41 28 65.5t71 24.5q35 0 55 -16.5t20 -47.5q0 -42 -26.5 -66t-71.5 -24q-76 0 -76 64zM733 1352q0 42 27 67t69 25q76 0 76 -64q0 -42 -25.5 -66t-70.5 -24q-76 0 -76 62z" />
<glyph unicode="&#xa9;" horiz-adv-x="1832" d="M86 539q0 191 52 354t142.5 279t212 199t261 123t288.5 40q158 0 290 -44t230 -128t152.5 -215.5t54.5 -296.5q0 -159 -37 -300t-103 -249t-156 -194t-197 -141t-226 -84t-243 -29q-157 0 -288 44t-228 128.5t-151 216t-54 297.5zM197 547q0 -147 46 -262.5t129.5 -189.5 t197 -112t251.5 -38q133 0 256 35.5t229.5 109.5t185.5 179t124 252.5t45 322.5q0 147 -46 261.5t-130 187.5t-198.5 111t-254.5 38q-132 0 -254 -35.5t-228 -108.5t-184.5 -177.5t-123.5 -252t-45 -321.5zM489 563q0 132 32.5 242.5t86.5 184.5t124.5 126t144.5 75t149 23 q183 0 266 -90l-18 -135q-66 121 -262 121q-81 0 -152.5 -32.5t-128 -95t-89 -163.5t-32.5 -229q0 -156 74.5 -233.5t214.5 -77.5q194 0 291 116l-19 -127q-101 -94 -288 -94q-183 0 -288.5 94t-105.5 295z" />
<glyph unicode="&#xaa;" horiz-adv-x="972" d="M145 387l17 109h645l-14 -109h-648zM156 852q0 142 107.5 209.5t344.5 101.5l162 25q6 40 6 74q0 96 -52 136t-169 40q-114 0 -198.5 -46.5t-123.5 -113.5l17 129q36 48 121.5 87.5t218.5 39.5q160 0 236.5 -62t76.5 -194q0 -40 -6 -90l-74 -510h-114l2 92 q-30 -46 -103 -80.5t-176 -34.5q-132 0 -204 48.5t-72 148.5zM283 868q0 -125 182 -125q89 0 157 31t101 74l37 262l-154 -29q-181 -34 -252 -77.5t-71 -135.5z" />
<glyph unicode="&#xab;" horiz-adv-x="1079" d="M55 508q141 134 240 248.5t180 238.5h141q-164 -247 -407 -487q152 -210 268 -508h-141q-101 272 -281 508zM467 508q141 134 240 248.5t180 238.5h141q-159 -239 -410 -487q156 -211 271 -508h-141q-101 272 -281 508z" />
<glyph unicode="&#xac;" horiz-adv-x="1193" d="M156 631l18 137h891l-74 -528h-137l55 391h-753z" />
<glyph unicode="&#xad;" horiz-adv-x="770" d="M119 549l16 131h518l-18 -131h-516z" />
<glyph unicode="&#xae;" horiz-adv-x="1159" d="M164 995q0 129 45.5 236t121.5 176t173 107t203 38q185 0 301 -103t116 -286q0 -129 -46 -236t-122.5 -176t-175 -107t-205.5 -38q-183 0 -297 103t-114 286zM244 1006q0 -153 94.5 -238.5t249.5 -85.5q122 0 223 53.5t164 163t63 256.5q0 153 -93 237.5t-247 84.5 q-90 0 -171.5 -31.5t-144.5 -89.5t-100.5 -148.5t-37.5 -201.5zM432 823l74 527h156q217 0 217 -127q0 -84 -56 -133t-155 -60l211 -207h-111l-186 193h-43l-27 -193h-80zM549 1085h86q76 0 117 32.5t41 88.5q0 42 -32.5 60t-98.5 18h-87z" />
<glyph unicode="&#xaf;" horiz-adv-x="1044" d="M344 1323l14 90h560l-15 -90h-559z" />
<glyph unicode="&#xb0;" horiz-adv-x="827" d="M166 1049q0 150 100.5 252t261.5 102q129 0 200 -67.5t71 -180.5q0 -149 -102 -250.5t-261 -101.5q-130 0 -200 67t-70 179zM283 1065q0 -76 44.5 -119t125.5 -43q100 0 165.5 67.5t65.5 168.5q0 76 -45 120t-127 44q-100 0 -164.5 -68.5t-64.5 -169.5z" />
<glyph unicode="&#xb1;" horiz-adv-x="1218" d="M61 0l19 135h940l-19 -135h-940zM174 815l21 133h401l55 406h137l-57 -406h404l-21 -133h-403l-58 -409h-135l57 409h-401z" />
<glyph unicode="&#xb2;" horiz-adv-x="735" d="M90 684l4 33l326 278q43 37 72.5 65.5t61.5 67t48 78.5t16 80q0 131 -188 131q-85 0 -158.5 -30t-119.5 -76l16 112q43 41 120 70t175 29q139 0 207.5 -52.5t68.5 -148.5q0 -58 -22.5 -113.5t-66 -106t-81.5 -86.5t-94 -81l-180 -143h414l-15 -107h-604z" />
<glyph unicode="&#xb3;" horiz-adv-x="743" d="M84 717l16 114q69 -65 211 -65q144 0 218.5 48t74.5 130q0 63 -61 95t-201 32h-47l2 25l315 305h-432l15 102h591l-2 -26l-329 -320q137 -9 206.5 -54.5t69.5 -135.5q0 -128 -110 -215.5t-312 -87.5q-138 0 -225 53z" />
<glyph unicode="&#xb4;" horiz-adv-x="1044" d="M383 1247l262 256h148l-271 -256h-139z" />
<glyph unicode="&#xb6;" horiz-adv-x="942" d="M170 1186q0 87 66.5 152t166.5 65h463l-194 -1403l-107 -41l189 1341h-217l-201 -1431l-107 -41l170 1204q-18 -8 -49 -8q-82 0 -131 46t-49 116z" />
<glyph unicode="&#xb7;" horiz-adv-x="833" d="M342 678q0 47 27.5 73.5t74.5 26.5q39 0 60.5 -17.5t21.5 -49.5q0 -47 -28 -73t-76 -26q-80 0 -80 66z" />
<glyph unicode="&#xb8;" horiz-adv-x="1044" d="M166 -424l14 96q52 -55 166 -55q168 0 168 119q0 34 -23.5 49.5t-74.5 15.5q-82 0 -148 -32l103 231h82l-64 -139q28 12 78 12q147 0 147 -121q0 -104 -75.5 -161.5t-206.5 -57.5q-104 0 -166 43z" />
<glyph unicode="&#xb9;" horiz-adv-x="643" d="M129 684l14 104h199l80 574q-91 -62 -281 -62l15 103q120 0 199.5 24.5t142.5 81.5h63l-100 -721h190l-14 -104h-508z" />
<glyph unicode="&#xba;" horiz-adv-x="1069" d="M178 991q0 131 41 236.5t110 171.5t156.5 100.5t184.5 34.5q166 0 260 -89t94 -259q0 -131 -40.5 -236.5t-109 -170.5t-155.5 -99.5t-184 -34.5q-166 0 -261.5 88.5t-95.5 257.5zM182 379l15 106h649l-17 -106h-647zM309 1004q0 -126 63 -191t183 -65q155 0 247.5 112 t92.5 314q0 126 -62.5 192t-183.5 66q-155 0 -247.5 -113.5t-92.5 -314.5z" />
<glyph unicode="&#xbb;" horiz-adv-x="1079" d="M20 0q191 292 412 508q-184 249 -272 487h141q45 -124 112 -238.5t171 -248.5q-249 -238 -422 -508h-142zM432 0q189 290 410 508q-182 247 -271 487h142q82 -230 282 -487q-261 -249 -422 -508h-141z" />
<glyph unicode="&#xbc;" horiz-adv-x="1847" d="M150 539l14 104h198l82 574q-88 -60 -280 -60l12 100q120 0 200.5 25.5t143.5 83.5h62l-101 -723h193l-15 -104h-509zM451 0l960 1358h80l-961 -1358h-79zM1010 184l4 25l344 610h115l-297 -532h344l49 319h108l-45 -319h103l-13 -103h-104l-25 -184h-114l26 184h-495z " />
<glyph unicode="&#xbd;" horiz-adv-x="1863" d="M143 539l15 104h198l82 574q-88 -60 -280 -60l12 100q120 0 200.5 25.5t143.5 83.5h61l-100 -723h193l-15 -104h-510zM434 0l961 1358h80l-961 -1358h-80zM1104 0l2 33l326 278q92 77 146 146.5t54 144.5q0 131 -190 131q-85 0 -159 -30t-120 -76l17 112q43 41 120.5 70 t176.5 29q139 0 207.5 -52t68.5 -149q0 -58 -22.5 -113.5t-65.5 -105.5t-82 -86t-94 -80l-180 -146h411l-14 -106h-602z" />
<glyph unicode="&#xbe;" horiz-adv-x="1826" d="M100 573l17 113q69 -65 211 -65q145 0 219 48t74 132q0 127 -265 127h-47l4 22l316 305h-432l14 103h592l-2 -27l-332 -319q139 -9 209 -54.5t70 -134.5q0 -129 -110 -216t-312 -87q-150 0 -226 53zM428 0l961 1358h79l-960 -1358h-80zM991 184l4 25l344 610h115 l-297 -532h344l49 319h109l-45 -319h102l-12 -103h-105l-24 -184h-115l27 184h-496z" />
<glyph unicode="&#xbf;" horiz-adv-x="899" d="M-4 -18q0 67 17.5 125t55.5 110t70.5 85.5t89.5 86.5q82 77 128 149t57 164l4 39h153l-6 -36q-23 -133 -81 -221t-162 -183q-81 -74 -120.5 -136.5t-39.5 -146.5q0 -77 52.5 -123.5t160.5 -46.5t211 52.5t157 136.5l-22 -168q-52 -69 -159.5 -112.5t-231.5 -43.5 q-161 0 -247.5 72t-86.5 197zM432 1012q0 52 34.5 86.5t82.5 34.5q41 0 64.5 -23.5t23.5 -60.5q0 -52 -33.5 -87.5t-83.5 -35.5q-40 0 -64 24t-24 62z" />
<glyph unicode="&#xc0;" d="M-61 0l684 1233l-29 125h160l360 -1358h-162l-88 332h-596l-180 -332h-149zM332 449h502l-144 550l-16 84l-41 -84zM449 1749h149l193 -256h-144z" />
<glyph unicode="&#xc1;" d="M-61 0l684 1233l-29 125h160l360 -1358h-162l-88 332h-596l-180 -332h-149zM332 449h502l-144 550l-16 84l-41 -84zM612 1493l262 256h148l-270 -256h-140z" />
<glyph unicode="&#xc2;" d="M-61 0l684 1233l-29 125h160l360 -1358h-162l-88 332h-596l-180 -332h-149zM332 449h502l-144 550l-16 84l-41 -84zM426 1493l262 256h96l195 -256h-127l-127 164l-174 -164h-125z" />
<glyph unicode="&#xc3;" d="M-61 0l684 1233l-29 125h160l360 -1358h-162l-88 332h-596l-180 -332h-149zM332 449h502l-144 550l-16 84l-41 -84zM397 1522q17 96 75 148t138 52q47 0 79 -18t65 -49q25 -25 43.5 -36t44.5 -11q80 0 98 114h96q-15 -96 -71 -148t-134 -52q-34 0 -62.5 10.5t-43.5 22 t-37 32.5q-20 19 -29 26.5t-26.5 16t-34.5 8.5q-81 0 -102 -116h-99z" />
<glyph unicode="&#xc4;" d="M-61 0l684 1233l-29 125h160l360 -1358h-162l-88 332h-596l-180 -332h-149zM332 449h502l-144 550l-16 84l-41 -84zM444 1599q0 41 28 66t71 25q35 0 55 -16.5t20 -47.5q0 -42 -26.5 -66t-71.5 -24q-76 0 -76 63zM821 1597q0 42 27.5 67.5t69.5 25.5q75 0 75 -64 q0 -42 -25.5 -66t-70.5 -24q-76 0 -76 61z" />
<glyph unicode="&#xc5;" d="M-61 0l684 1233l-29 125h160l360 -1358h-162l-88 332h-596l-180 -332h-149zM332 449h502l-144 550l-16 84l-41 -84zM514 1642q0 89 67 149t171 60q89 0 137.5 -42t48.5 -111q0 -90 -66.5 -149.5t-171.5 -59.5q-89 0 -137.5 42t-48.5 111zM606 1655q0 -38 26 -62t81 -24 q67 0 101 35t34 86q0 38 -26.5 61t-80.5 23q-66 0 -100.5 -35t-34.5 -84z" />
<glyph unicode="&#xc6;" horiz-adv-x="1708" d="M-66 0l832 1235l-16 123h970l-18 -135h-770l53 -461h414l-17 -125h-376l59 -502h483l-16 -135h-600l-41 332h-582l-223 -332h-152zM379 449h495l-59 540l-14 92l-49 -90z" />
<glyph unicode="&#xc7;" horiz-adv-x="1193" d="M104 504q0 174 40 320.5t108.5 249t160 175t195 106.5t213.5 34q258 0 365 -119l-25 -178q-88 161 -338 161q-115 0 -214.5 -44.5t-177.5 -131t-122.5 -226t-44.5 -316.5q0 -216 103.5 -324.5t296.5 -108.5q241 0 380 158l-20 -158q-147 -135 -397 -135l-54 -117 q30 13 78 13q148 0 148 -121q0 -104 -76 -161.5t-207 -57.5q-104 0 -166 43l15 96q52 -55 165 -55q168 0 168 119q0 34 -23.5 49.5t-74.5 15.5q-79 0 -147 -33l94 213q-212 21 -327.5 153.5t-115.5 379.5z" />
<glyph unicode="&#xc8;" horiz-adv-x="1114" d="M88 0l191 1358h845l-18 -135h-690l-66 -461h451l-17 -125h-450l-72 -502h690l-18 -135h-846zM467 1749h149l193 -256h-143z" />
<glyph unicode="&#xc9;" horiz-adv-x="1114" d="M88 0l191 1358h845l-18 -135h-690l-66 -461h451l-17 -125h-450l-72 -502h690l-18 -135h-846zM631 1493l262 256h147l-270 -256h-139z" />
<glyph unicode="&#xca;" horiz-adv-x="1114" d="M88 0l191 1358h845l-18 -135h-690l-66 -461h451l-17 -125h-450l-72 -502h690l-18 -135h-846zM446 1493l263 256h96l194 -256h-127l-127 164l-174 -164h-125z" />
<glyph unicode="&#xcb;" horiz-adv-x="1114" d="M88 0l191 1358h845l-18 -135h-690l-66 -461h451l-17 -125h-450l-72 -502h690l-18 -135h-846zM463 1599q0 41 27.5 66t70.5 25q36 0 56 -17t20 -47q0 -42 -26.5 -66t-71.5 -24q-76 0 -76 63zM840 1597q0 42 27 67.5t69 25.5q76 0 76 -64q0 -42 -26 -66t-71 -24 q-75 0 -75 61z" />
<glyph unicode="&#xcc;" horiz-adv-x="503" d="M88 0l191 1358h155l-188 -1358h-158zM121 1749h149l193 -256h-144z" />
<glyph unicode="&#xcd;" horiz-adv-x="503" d="M88 0l191 1358h155l-188 -1358h-158zM285 1493l262 256h147l-270 -256h-139z" />
<glyph unicode="&#xce;" horiz-adv-x="503" d="M88 0l191 1358h155l-188 -1358h-158zM100 1493l262 256h97l194 -256h-127l-127 164l-174 -164h-125z" />
<glyph unicode="&#xcf;" horiz-adv-x="503" d="M88 0l191 1358h155l-188 -1358h-158zM117 1599q0 41 27.5 66t70.5 25q36 0 56 -17t20 -47q0 -42 -26.5 -66t-71.5 -24q-76 0 -76 63zM494 1597q0 42 27 67.5t69 25.5q76 0 76 -64q0 -42 -26 -66t-71 -24q-75 0 -75 61z" />
<glyph unicode="&#xd0;" horiz-adv-x="1351" d="M33 645l10 82h152l90 631h366q305 0 462 -122t157 -392q0 -181 -44 -326t-119 -240.5t-179.5 -159t-220 -91t-246.5 -27.5h-367l90 645h-151zM268 135h211q304 0 467.5 168t163.5 518q0 209 -114.5 305.5t-362.5 96.5h-211l-72 -496h271l-13 -82h-268z" />
<glyph unicode="&#xd1;" horiz-adv-x="1370" d="M90 0l174 1253l-57 105h180l619 -1084h4l151 1084h139l-188 -1358h-117l-612 1071h-4l-150 -1071h-139zM494 1544q17 97 75.5 149t137.5 52q32 0 61.5 -12t44.5 -23.5t37 -32.5q25 -25 43.5 -36t44.5 -11q80 0 98 115h97q-15 -97 -71 -149t-134 -52q-34 0 -62.5 11 t-43.5 22.5t-38 32.5q-20 19 -29 26.5t-26.5 16t-34.5 8.5q-81 0 -102 -117h-98z" />
<glyph unicode="&#xd2;" horiz-adv-x="1458" d="M98 508q0 173 43.5 320t116.5 248.5t169.5 173.5t201 105.5t211.5 33.5q254 0 397 -139t143 -408q0 -144 -30.5 -270t-84.5 -220.5t-125 -169t-154.5 -121t-171 -70.5t-175.5 -24q-255 0 -398 135.5t-143 405.5zM260 535q0 -218 103.5 -325.5t295.5 -107.5 q109 0 208.5 45.5t179 132t127 225.5t47.5 312q0 216 -104.5 327t-295.5 111q-88 0 -170 -28t-153.5 -87t-124 -143t-83 -203t-30.5 -259zM600 1749h150l192 -256h-143z" />
<glyph unicode="&#xd3;" horiz-adv-x="1458" d="M98 508q0 173 43.5 320t116.5 248.5t169.5 173.5t201 105.5t211.5 33.5q254 0 397 -139t143 -408q0 -144 -30.5 -270t-84.5 -220.5t-125 -169t-154.5 -121t-171 -70.5t-175.5 -24q-255 0 -398 135.5t-143 405.5zM260 535q0 -218 103.5 -325.5t295.5 -107.5 q109 0 208.5 45.5t179 132t127 225.5t47.5 312q0 216 -104.5 327t-295.5 111q-88 0 -170 -28t-153.5 -87t-124 -143t-83 -203t-30.5 -259zM764 1493l262 256h148l-271 -256h-139z" />
<glyph unicode="&#xd4;" horiz-adv-x="1458" d="M98 508q0 173 43.5 320t116.5 248.5t169.5 173.5t201 105.5t211.5 33.5q254 0 397 -139t143 -408q0 -144 -30.5 -270t-84.5 -220.5t-125 -169t-154.5 -121t-171 -70.5t-175.5 -24q-255 0 -398 135.5t-143 405.5zM260 535q0 -218 103.5 -325.5t295.5 -107.5 q109 0 208.5 45.5t179 132t127 225.5t47.5 312q0 216 -104.5 327t-295.5 111q-88 0 -170 -28t-153.5 -87t-124 -143t-83 -203t-30.5 -259zM580 1493l262 256h96l195 -256h-127l-127 164l-174 -164h-125z" />
<glyph unicode="&#xd5;" horiz-adv-x="1458" d="M98 508q0 173 43.5 320t116.5 248.5t169.5 173.5t201 105.5t211.5 33.5q254 0 397 -139t143 -408q0 -144 -30.5 -270t-84.5 -220.5t-125 -169t-154.5 -121t-171 -70.5t-175.5 -24q-255 0 -398 135.5t-143 405.5zM260 535q0 -218 103.5 -325.5t295.5 -107.5 q109 0 208.5 45.5t179 132t127 225.5t47.5 312q0 216 -104.5 327t-295.5 111q-88 0 -170 -28t-153.5 -87t-124 -143t-83 -203t-30.5 -259zM549 1522q17 96 75 148t138 52q33 0 62 -11.5t44 -23t37 -32.5q25 -25 43.5 -36t44.5 -11q81 0 99 114h96q-15 -96 -71 -148t-134 -52 q-34 0 -62.5 10.5t-43.5 22t-37 32.5q-20 19 -29 26.5t-26.5 16t-34.5 8.5q-82 0 -103 -116h-98z" />
<glyph unicode="&#xd6;" horiz-adv-x="1458" d="M98 508q0 173 43.5 320t116.5 248.5t169.5 173.5t201 105.5t211.5 33.5q254 0 397 -139t143 -408q0 -144 -30.5 -270t-84.5 -220.5t-125 -169t-154.5 -121t-171 -70.5t-175.5 -24q-255 0 -398 135.5t-143 405.5zM260 535q0 -218 103.5 -325.5t295.5 -107.5 q109 0 208.5 45.5t179 132t127 225.5t47.5 312q0 216 -104.5 327t-295.5 111q-88 0 -170 -28t-153.5 -87t-124 -143t-83 -203t-30.5 -259zM596 1599q0 41 27.5 66t70.5 25q36 0 56 -17t20 -47q0 -42 -26.5 -66t-71.5 -24q-76 0 -76 63zM973 1597q0 42 27 67.5t69 25.5 q76 0 76 -64q0 -42 -25.5 -66t-70.5 -24q-76 0 -76 61z" />
<glyph unicode="&#xd7;" horiz-adv-x="1011" d="M100 422l322 285l-246 286l109 97l245 -289l326 286l82 -96l-326 -284l248 -287l-108 -96l-246 288l-326 -284z" />
<glyph unicode="&#xd8;" horiz-adv-x="1462" d="M18 0l168 170q-86 131 -86 338q0 173 43.5 320t116.5 248.5t169.5 173.5t201 105.5t211.5 33.5q264 0 405 -150l119 119h107l-177 -178q86 -134 86 -338q0 -144 -30.5 -270t-84.5 -220.5t-125 -169t-154.5 -121t-171 -70.5t-175.5 -24q-266 0 -405 142l-109 -109h-109z M262 535q0 -146 47 -242l826 831q-104 131 -312 131q-88 0 -170 -28t-153.5 -87t-124 -143t-83 -203t-30.5 -259zM350 225q102 -123 312 -123q87 0 168 28t152.5 87t125 142t84.5 201t31 257q0 144 -47 240z" />
<glyph unicode="&#xd9;" horiz-adv-x="1411" d="M147 319.5q-13 96.5 7 223.5l114 815h156l-115 -817q-32 -232 53.5 -335.5t274.5 -103.5q390 0 450 439l115 817h154l-115 -815q-21 -149 -78.5 -261.5t-142.5 -180t-188.5 -101t-223.5 -33.5q-99 0 -176.5 19t-140 61t-97 109t-47.5 163.5zM578 1749h149l193 -256h-144z " />
<glyph unicode="&#xda;" horiz-adv-x="1411" d="M147 319.5q-13 96.5 7 223.5l114 815h156l-115 -817q-32 -232 53.5 -335.5t274.5 -103.5q390 0 450 439l115 817h154l-115 -815q-21 -149 -78.5 -261.5t-142.5 -180t-188.5 -101t-223.5 -33.5q-99 0 -176.5 19t-140 61t-97 109t-47.5 163.5zM741 1493l263 256h147 l-270 -256h-140z" />
<glyph unicode="&#xdb;" horiz-adv-x="1411" d="M147 319.5q-13 96.5 7 223.5l114 815h156l-115 -817q-32 -232 53.5 -335.5t274.5 -103.5q390 0 450 439l115 817h154l-115 -815q-21 -149 -78.5 -261.5t-142.5 -180t-188.5 -101t-223.5 -33.5q-99 0 -176.5 19t-140 61t-97 109t-47.5 163.5zM557 1493l262 256h96 l195 -256h-127l-127 164l-174 -164h-125z" />
<glyph unicode="&#xdc;" horiz-adv-x="1411" d="M147 319.5q-13 96.5 7 223.5l114 815h156l-115 -817q-32 -232 53.5 -335.5t274.5 -103.5q390 0 450 439l115 817h154l-115 -815q-21 -149 -78.5 -261.5t-142.5 -180t-188.5 -101t-223.5 -33.5q-99 0 -176.5 19t-140 61t-97 109t-47.5 163.5zM573 1599q0 41 28 66t71 25 q36 0 56 -17t20 -47q0 -42 -27 -66t-72 -24q-76 0 -76 63zM950 1597q0 42 27.5 67.5t69.5 25.5q75 0 75 -64q0 -42 -25.5 -66t-70.5 -24q-76 0 -76 61z" />
<glyph unicode="&#xdd;" horiz-adv-x="1112" d="M117 1358h174l287 -625l466 625h156l-569 -760l-84 -598h-156l84 598zM584 1493l262 256h147l-270 -256h-139z" />
<glyph unicode="&#xde;" horiz-adv-x="1144" d="M88 0l191 1358h155l-31 -221h211q255 0 373.5 -82.5t118.5 -249.5q0 -124 -38 -225.5t-113 -177t-194 -117t-272 -41.5h-131l17 121h131q217 0 327.5 106.5t110.5 298.5q0 124 -83.5 183t-264.5 59h-211l-139 -1012h-158z" />
<glyph unicode="&#xdf;" horiz-adv-x="1175" d="M14 -387l209 1497q28 204 168 314t336 110q182 0 281.5 -81t99.5 -224q0 -176 -98 -289t-254 -147v-5q137 -14 221 -95t84 -222q0 -224 -139 -364t-355 -140q-72 0 -129 19t-82 47l21 139q25 -34 74.5 -56t115.5 -22q147 0 241.5 99t94.5 262q0 124 -86.5 188t-245.5 66 l21 129q161 12 257.5 107t96.5 247q0 106 -64 163.5t-175 57.5q-132 0 -221.5 -76t-110.5 -227l-207 -1497h-154z" />
<glyph unicode="&#xe0;" horiz-adv-x="1173" d="M80 442q0 310 153.5 501.5t387.5 191.5q97 0 166.5 -38.5t105.5 -103.5l25 107h124l-122 -879q-9 -60 8.5 -86t60.5 -26q60 0 103 61l-19 -141q-45 -45 -137 -45q-77 0 -119 42t-43 124q-31 -75 -113 -129t-200 -54q-180 0 -280.5 121.5t-100.5 353.5zM240 451 q0 -170 66.5 -264.5t197.5 -94.5q106 0 175 54.5t97 134.5l86 608q-28 53 -83 88t-136 35q-190 0 -296.5 -155.5t-106.5 -405.5zM438 1503h150l192 -256h-143z" />
<glyph unicode="&#xe1;" horiz-adv-x="1173" d="M80 442q0 310 153.5 501.5t387.5 191.5q97 0 166.5 -38.5t105.5 -103.5l25 107h124l-122 -879q-9 -60 8.5 -86t60.5 -26q60 0 103 61l-19 -141q-45 -45 -137 -45q-77 0 -119 42t-43 124q-31 -75 -113 -129t-200 -54q-180 0 -280.5 121.5t-100.5 353.5zM240 451 q0 -170 66.5 -264.5t197.5 -94.5q106 0 175 54.5t97 134.5l86 608q-28 53 -83 88t-136 35q-190 0 -296.5 -155.5t-106.5 -405.5zM602 1247l262 256h148l-271 -256h-139z" />
<glyph unicode="&#xe2;" horiz-adv-x="1173" d="M80 442q0 310 153.5 501.5t387.5 191.5q97 0 166.5 -38.5t105.5 -103.5l25 107h124l-122 -879q-9 -60 8.5 -86t60.5 -26q60 0 103 61l-19 -141q-45 -45 -137 -45q-77 0 -119 42t-43 124q-31 -75 -113 -129t-200 -54q-180 0 -280.5 121.5t-100.5 353.5zM240 451 q0 -170 66.5 -264.5t197.5 -94.5q106 0 175 54.5t97 134.5l86 608q-28 53 -83 88t-136 35q-190 0 -296.5 -155.5t-106.5 -405.5zM418 1247l262 256h96l195 -256h-127l-127 164l-174 -164h-125z" />
<glyph unicode="&#xe3;" horiz-adv-x="1173" d="M80 442q0 310 153.5 501.5t387.5 191.5q97 0 166.5 -38.5t105.5 -103.5l25 107h124l-122 -879q-9 -60 8.5 -86t60.5 -26q60 0 103 61l-19 -141q-45 -45 -137 -45q-77 0 -119 42t-43 124q-31 -75 -113 -129t-200 -54q-180 0 -280.5 121.5t-100.5 353.5zM240 451 q0 -170 66.5 -264.5t197.5 -94.5q106 0 175 54.5t97 134.5l86 608q-28 53 -83 88t-136 35q-190 0 -296.5 -155.5t-106.5 -405.5zM389 1276q17 97 75.5 149t137.5 52q32 0 61.5 -12t44.5 -23.5t37 -32.5q47 -47 89 -47q80 0 98 115h96q-15 -97 -71 -149t-134 -52 q-34 0 -62.5 10.5t-43.5 22t-37 32.5q-42 39 -62 47q-13 5 -28 5q-39 0 -66 -29.5t-37 -87.5h-98z" />
<glyph unicode="&#xe4;" horiz-adv-x="1173" d="M80 442q0 310 153.5 501.5t387.5 191.5q97 0 166.5 -38.5t105.5 -103.5l25 107h124l-122 -879q-9 -60 8.5 -86t60.5 -26q60 0 103 61l-19 -141q-45 -45 -137 -45q-77 0 -119 42t-43 124q-31 -75 -113 -129t-200 -54q-180 0 -280.5 121.5t-100.5 353.5zM240 451 q0 -170 66.5 -264.5t197.5 -94.5q106 0 175 54.5t97 134.5l86 608q-28 53 -83 88t-136 35q-190 0 -296.5 -155.5t-106.5 -405.5zM434 1354q0 41 27.5 65.5t70.5 24.5q36 0 56 -17t20 -47q0 -42 -26.5 -66t-71.5 -24q-76 0 -76 64zM811 1352q0 42 27 67t69 25q76 0 76 -64 q0 -42 -25.5 -66t-70.5 -24q-76 0 -76 62z" />
<glyph unicode="&#xe5;" horiz-adv-x="1173" d="M80 442q0 310 153.5 501.5t387.5 191.5q97 0 166.5 -38.5t105.5 -103.5l25 107h124l-122 -879q-9 -60 8.5 -86t60.5 -26q60 0 103 61l-19 -141q-45 -45 -137 -45q-77 0 -119 42t-43 124q-31 -75 -113 -129t-200 -54q-180 0 -280.5 121.5t-100.5 353.5zM240 451 q0 -170 66.5 -264.5t197.5 -94.5q106 0 175 54.5t97 134.5l86 608q-28 53 -83 88t-136 35q-190 0 -296.5 -155.5t-106.5 -405.5zM504 1397q0 89 66.5 149t170.5 60q89 0 138 -42.5t49 -111.5q0 -90 -66.5 -149.5t-171.5 -59.5q-89 0 -137.5 42.5t-48.5 111.5zM596 1409 q0 -38 25.5 -62t80.5 -24q67 0 101.5 35.5t34.5 85.5q0 38 -26.5 61t-80.5 23q-66 0 -100.5 -35t-34.5 -84z" />
<glyph unicode="&#xe6;" horiz-adv-x="1679" d="M70 258q0 75 24.5 132.5t66 97t109.5 69.5t140 48.5t172 35.5l168 29q29 183 -37 260.5t-207 77.5q-118 0 -210.5 -61t-137.5 -148l22 166q43 65 135 117.5t234 52.5q136 0 216.5 -65.5t90.5 -203.5q59 127 172 198t229 71q165 0 257 -85t92 -235q0 -169 -134.5 -271 t-369.5 -102q-126 0 -223 33q-5 -40 -5 -55q0 -150 84 -237t234 -87q219 0 328 162l-19 -154q-39 -56 -121.5 -96.5t-210.5 -40.5q-279 0 -376 211q-54 -89 -155.5 -150t-240.5 -61q-147 0 -237 77.5t-90 213.5zM221 268q0 -88 57 -136t160 -48q107 0 188.5 52.5 t125.5 125.5q-25 95 -25 193q0 50 8 112l-155 -32q-201 -42 -280 -96.5t-79 -170.5zM881 582q84 -31 190 -31q186 0 283.5 66t97.5 192q0 91 -53.5 145t-157.5 54q-137 0 -239 -112.5t-121 -313.5z" />
<glyph unicode="&#xe7;" horiz-adv-x="991" d="M84 434q0 140 31.5 256.5t86 197.5t129 137.5t159.5 83t178 26.5q191 0 282 -117l-24 -166q-87 149 -277 149q-177 0 -291 -149t-114 -412q0 -338 286 -338q194 0 322 152l-25 -164q-49 -54 -131.5 -88.5t-193.5 -34.5l-53 -117q30 13 77 13q148 0 148 -121 q0 -104 -76 -161.5t-207 -57.5q-104 0 -166 43l15 96q52 -55 166 -55q167 0 167 119q0 34 -23.5 49.5t-74.5 15.5q-79 0 -147 -33l94 215q-161 21 -249.5 136.5t-88.5 324.5z" />
<glyph unicode="&#xe8;" horiz-adv-x="1050" d="M82 455q0 156 45 286t121 215t174.5 132t206.5 47q165 0 256.5 -85t91.5 -235q0 -169 -134.5 -271t-369.5 -102q-134 0 -225 31q-2 -16 -2 -53q0 -153 83.5 -238.5t233.5 -85.5q219 0 328 162l-19 -154q-39 -56 -122 -96.5t-209 -40.5q-216 0 -337.5 123t-121.5 365z M252 582q84 -31 190 -31q187 0 284 66t97 192q0 91 -53.5 145t-157.5 54q-138 0 -239 -112t-121 -314zM381 1503h149l193 -256h-143z" />
<glyph unicode="&#xe9;" horiz-adv-x="1050" d="M82 455q0 156 45 286t121 215t174.5 132t206.5 47q165 0 256.5 -85t91.5 -235q0 -169 -134.5 -271t-369.5 -102q-134 0 -225 31q-2 -16 -2 -53q0 -153 83.5 -238.5t233.5 -85.5q219 0 328 162l-19 -154q-39 -56 -122 -96.5t-209 -40.5q-216 0 -337.5 123t-121.5 365z M252 582q84 -31 190 -31q187 0 284 66t97 192q0 91 -53.5 145t-157.5 54q-138 0 -239 -112t-121 -314zM547 1247l262 256h147l-270 -256h-139z" />
<glyph unicode="&#xea;" horiz-adv-x="1050" d="M82 455q0 156 45 286t121 215t174.5 132t206.5 47q165 0 256.5 -85t91.5 -235q0 -169 -134.5 -271t-369.5 -102q-134 0 -225 31q-2 -16 -2 -53q0 -153 83.5 -238.5t233.5 -85.5q219 0 328 162l-19 -154q-39 -56 -122 -96.5t-209 -40.5q-216 0 -337.5 123t-121.5 365z M252 582q84 -31 190 -31q187 0 284 66t97 192q0 91 -53.5 145t-157.5 54q-138 0 -239 -112t-121 -314zM360 1247l263 256h96l194 -256h-127l-127 164l-174 -164h-125z" />
<glyph unicode="&#xeb;" horiz-adv-x="1050" d="M82 455q0 156 45 286t121 215t174.5 132t206.5 47q165 0 256.5 -85t91.5 -235q0 -169 -134.5 -271t-369.5 -102q-134 0 -225 31q-2 -16 -2 -53q0 -153 83.5 -238.5t233.5 -85.5q219 0 328 162l-19 -154q-39 -56 -122 -96.5t-209 -40.5q-216 0 -337.5 123t-121.5 365z M252 582q84 -31 190 -31q187 0 284 66t97 192q0 91 -53.5 145t-157.5 54q-138 0 -239 -112t-121 -314zM377 1354q0 41 27.5 65.5t70.5 24.5q36 0 56 -17t20 -47q0 -42 -26.5 -66t-71.5 -24q-76 0 -76 64zM754 1352q0 42 27 67t69 25q76 0 76 -64q0 -42 -26 -66t-71 -24 q-75 0 -75 62z" />
<glyph unicode="&#xec;" horiz-adv-x="552" d="M100 1503h150l192 -256h-143zM121 977l18 125h279l-137 -887q-17 -106 67 -106q64 0 107 61l-19 -141q-51 -45 -141 -45q-97 0 -141 59t-25 172l123 762h-131z" />
<glyph unicode="&#xed;" horiz-adv-x="552" d="M121 977l18 125h279l-137 -887q-17 -106 67 -106q64 0 107 61l-19 -141q-51 -45 -141 -45q-97 0 -141 59t-25 172l123 762h-131zM264 1247l262 256h148l-271 -256h-139z" />
<glyph unicode="&#xee;" horiz-adv-x="552" d="M80 1247l262 256h96l195 -256h-127l-127 164l-174 -164h-125zM121 977l18 125h279l-137 -887q-17 -106 67 -106q64 0 107 61l-19 -141q-51 -45 -141 -45q-97 0 -141 59t-25 172l123 762h-131z" />
<glyph unicode="&#xef;" horiz-adv-x="552" d="M96 1354q0 41 28 65.5t71 24.5q35 0 55 -16.5t20 -47.5q0 -42 -26.5 -66t-71.5 -24q-76 0 -76 64zM121 977l18 125h279l-137 -887q-17 -106 67 -106q64 0 107 61l-19 -141q-51 -45 -141 -45q-97 0 -141 59t-25 172l123 762h-131zM473 1352q0 42 27 67t69 25q76 0 76 -64 q0 -42 -25.5 -66t-70.5 -24q-76 0 -76 62z" />
<glyph unicode="&#xf0;" horiz-adv-x="1142" d="M74 395q0 124 32.5 231.5t86 182t123 128t143.5 78.5t147 25q208 0 281 -163l4 2q-54 283 -225 421l-152 -116h-100l209 157q-134 100 -279 154v8h197q96 -41 174 -96l123 96h100l-176 -133q140 -113 212.5 -293t72.5 -405q0 -137 -33 -254t-89 -199t-130 -139.5 t-156 -85t-168 -27.5q-179 0 -288 111.5t-109 316.5zM233 414q0 -148 70 -234t193 -86q166 0 277.5 143t111.5 371q0 148 -70 233t-192 85q-165 0 -277.5 -143t-112.5 -369z" />
<glyph unicode="&#xf1;" horiz-adv-x="1185" d="M68 0l153 1102h144l-11 -148q43 77 132.5 128t207.5 51q203 0 283.5 -123.5t40.5 -352.5l-80 -442q-20 -106 61 -106q62 0 105 61l-19 -141q-40 -45 -135 -45t-139.5 59t-24.5 172l74 414q36 200 -16.5 292.5t-198.5 92.5q-112 0 -194.5 -59t-116.5 -140l-113 -815h-153z M360 1276q17 97 75.5 149t137.5 52q32 0 61.5 -12t45 -23.5t37.5 -32.5q25 -25 43.5 -36t44.5 -11q80 0 98 115h96q-15 -97 -70.5 -149t-133.5 -52q-34 0 -62.5 10.5t-44 22t-37.5 32.5q-42 39 -62 47q-13 5 -28 5q-81 0 -102 -117h-99z" />
<glyph unicode="&#xf2;" horiz-adv-x="1146" d="M80 420q0 175 47.5 314.5t128 225t180.5 130.5t211 45q187 0 296.5 -112.5t109.5 -340.5q0 -141 -31 -260t-84.5 -202t-125.5 -140.5t-154 -85t-171 -27.5q-186 0 -296.5 112.5t-110.5 340.5zM236 428q0 -166 70 -250t202 -84q168 0 277.5 156t109.5 420q0 168 -68.5 253 t-199.5 85q-170 0 -280.5 -158t-110.5 -422zM428 1503h150l192 -256h-143z" />
<glyph unicode="&#xf3;" horiz-adv-x="1146" d="M80 420q0 175 47.5 314.5t128 225t180.5 130.5t211 45q187 0 296.5 -112.5t109.5 -340.5q0 -141 -31 -260t-84.5 -202t-125.5 -140.5t-154 -85t-171 -27.5q-186 0 -296.5 112.5t-110.5 340.5zM236 428q0 -166 70 -250t202 -84q168 0 277.5 156t109.5 420q0 168 -68.5 253 t-199.5 85q-170 0 -280.5 -158t-110.5 -422zM594 1247l262 256h148l-271 -256h-139z" />
<glyph unicode="&#xf4;" horiz-adv-x="1146" d="M80 420q0 175 47.5 314.5t128 225t180.5 130.5t211 45q187 0 296.5 -112.5t109.5 -340.5q0 -141 -31 -260t-84.5 -202t-125.5 -140.5t-154 -85t-171 -27.5q-186 0 -296.5 112.5t-110.5 340.5zM236 428q0 -166 70 -250t202 -84q168 0 277.5 156t109.5 420q0 168 -68.5 253 t-199.5 85q-170 0 -280.5 -158t-110.5 -422zM408 1247l262 256h96l195 -256h-127l-127 164l-175 -164h-124z" />
<glyph unicode="&#xf5;" horiz-adv-x="1146" d="M80 420q0 175 47.5 314.5t128 225t180.5 130.5t211 45q187 0 296.5 -112.5t109.5 -340.5q0 -141 -31 -260t-84.5 -202t-125.5 -140.5t-154 -85t-171 -27.5q-186 0 -296.5 112.5t-110.5 340.5zM236 428q0 -166 70 -250t202 -84q168 0 277.5 156t109.5 420q0 168 -68.5 253 t-199.5 85q-170 0 -280.5 -158t-110.5 -422zM379 1276q17 97 75.5 149t137.5 52q32 0 61.5 -12t44.5 -23.5t37 -32.5q25 -25 43.5 -36t44.5 -11q81 0 99 115h96q-15 -97 -71 -149t-134 -52q-34 0 -62.5 10.5t-43.5 22t-37 32.5q-42 39 -62 47q-13 5 -28 5q-39 0 -66 -29.5 t-37 -87.5h-98z" />
<glyph unicode="&#xf6;" horiz-adv-x="1146" d="M80 420q0 175 47.5 314.5t128 225t180.5 130.5t211 45q187 0 296.5 -112.5t109.5 -340.5q0 -141 -31 -260t-84.5 -202t-125.5 -140.5t-154 -85t-171 -27.5q-186 0 -296.5 112.5t-110.5 340.5zM236 428q0 -166 70 -250t202 -84q168 0 277.5 156t109.5 420q0 168 -68.5 253 t-199.5 85q-170 0 -280.5 -158t-110.5 -422zM424 1354q0 41 27.5 65.5t70.5 24.5q36 0 56 -17t20 -47q0 -42 -26.5 -66t-71.5 -24q-76 0 -76 64zM801 1352q0 42 27 67t69 25q76 0 76 -64q0 -42 -25.5 -66t-70.5 -24q-76 0 -76 62z" />
<glyph unicode="&#xf7;" horiz-adv-x="1144" d="M119 621l20 135h905l-18 -135h-907zM426 332q0 50 35.5 85.5t83.5 35.5q39 0 62.5 -24.5t23.5 -63.5q0 -52 -33.5 -86.5t-83.5 -34.5q-41 0 -64.5 24t-23.5 64zM524 1008q0 53 33 87.5t82 34.5q41 0 64.5 -24t23.5 -64q0 -51 -34.5 -84.5t-82.5 -33.5q-40 0 -63 23 t-23 61z" />
<glyph unicode="&#xf8;" horiz-adv-x="1157" d="M-31 0l164 168q-49 98 -49 252q0 175 47.5 314.5t128 225t180.5 130.5t211 45q201 0 307 -127l95 94h106l-158 -160q56 -109 56 -260q0 -176 -47 -315.5t-127 -225t-179.5 -130t-211.5 -44.5q-212 0 -316 133l-98 -100h-109zM240 428q0 -82 14 -137l594 604 q-66 113 -217 113q-170 0 -280.5 -158t-110.5 -422zM287 213q67 -119 225 -119q168 0 277.5 156t109.5 420q0 86 -18 147z" />
<glyph unicode="&#xf9;" d="M106 977l19 125h285l-105 -653q-29 -178 20.5 -269.5t194.5 -91.5q107 0 185 58t110 139l117 817h151l-122 -887q-7 -56 10 -81t59 -25q60 0 103 61l-19 -141q-45 -45 -137 -45q-79 0 -123.5 42.5t-44.5 125.5q-39 -77 -129 -131t-203 -54q-195 0 -279 119.5t-48 333.5 l92 557h-136zM432 1503h150l192 -256h-143z" />
<glyph unicode="&#xfa;" d="M106 977l19 125h285l-105 -653q-29 -178 20.5 -269.5t194.5 -91.5q107 0 185 58t110 139l117 817h151l-122 -887q-7 -56 10 -81t59 -25q60 0 103 61l-19 -141q-45 -45 -137 -45q-79 0 -123.5 42.5t-44.5 125.5q-39 -77 -129 -131t-203 -54q-195 0 -279 119.5t-48 333.5 l92 557h-136zM596 1247l262 256h148l-271 -256h-139z" />
<glyph unicode="&#xfb;" d="M106 977l19 125h285l-105 -653q-29 -178 20.5 -269.5t194.5 -91.5q107 0 185 58t110 139l117 817h151l-122 -887q-7 -56 10 -81t59 -25q60 0 103 61l-19 -141q-45 -45 -137 -45q-79 0 -123.5 42.5t-44.5 125.5q-39 -77 -129 -131t-203 -54q-195 0 -279 119.5t-48 333.5 l92 557h-136zM410 1247l262 256h96l195 -256h-127l-127 164l-174 -164h-125z" />
<glyph unicode="&#xfc;" d="M106 977l19 125h285l-105 -653q-29 -178 20.5 -269.5t194.5 -91.5q107 0 185 58t110 139l117 817h151l-122 -887q-7 -56 10 -81t59 -25q60 0 103 61l-19 -141q-45 -45 -137 -45q-79 0 -123.5 42.5t-44.5 125.5q-39 -77 -129 -131t-203 -54q-195 0 -279 119.5t-48 333.5 l92 557h-136zM428 1354q0 41 27.5 65.5t70.5 24.5q36 0 56 -17t20 -47q0 -42 -26.5 -66t-71.5 -24q-76 0 -76 64zM805 1352q0 42 27 67t69 25q76 0 76 -64q0 -42 -25.5 -66t-70.5 -24q-76 0 -76 62z" />
<glyph unicode="&#xfd;" horiz-adv-x="1167" d="M49 -270l33 161q31 -80 122 -131t208 -51q176 0 262 87t114 288l17 125q-38 -72 -125.5 -119t-192.5 -47q-195 0 -279 118.5t-48 334.5l80 481h-138l19 125h289l-95 -580q-29 -177 21.5 -268.5t193.5 -91.5q106 0 184 58t111 138l105 744h153l-145 -1036 q-34 -250 -162 -367t-379 -117q-124 0 -218 41.5t-130 106.5zM575 1247l263 256h147l-270 -256h-140z" />
<glyph unicode="&#xfe;" horiz-adv-x="1153" d="M14 -387l265 1890h153l-72 -530q38 65 120.5 113.5t195.5 48.5q187 0 284 -115t97 -346q0 -158 -42.5 -292t-116 -224t-173.5 -140.5t-213 -50.5q-91 0 -166 37.5t-110 95.5l-70 -487h-152zM252 229q33 -64 98.5 -101.5t149.5 -37.5q123 0 215 74.5t139 202t47 290.5 q0 178 -65 265.5t-207 87.5q-105 0 -184.5 -60.5t-112.5 -140.5z" />
<glyph unicode="&#xff;" horiz-adv-x="1167" d="M49 -270l33 161q31 -80 122 -131t208 -51q176 0 262 87t114 288l17 125q-38 -72 -125.5 -119t-192.5 -47q-195 0 -279 118.5t-48 334.5l80 481h-138l19 125h289l-95 -580q-29 -177 21.5 -268.5t193.5 -91.5q106 0 184 58t111 138l105 744h153l-145 -1036 q-34 -250 -162 -367t-379 -117q-124 0 -218 41.5t-130 106.5zM408 1354q0 41 27.5 65.5t70.5 24.5q36 0 56 -17t20 -47q0 -42 -27 -66t-72 -24q-75 0 -75 64zM784 1352q0 42 27.5 67t69.5 25q75 0 75 -64q0 -42 -25.5 -66t-70.5 -24q-76 0 -76 62z" />
<glyph unicode="&#x152;" horiz-adv-x="2142" d="M98 508q0 173 43.5 320t116 248.5t167.5 173.5t197.5 105.5t206.5 33.5q371 0 437 -312l41 281h845l-20 -135h-688l-66 -461h451l-17 -125h-450l-72 -502h690l-18 -135h-846l41 303q-83 -166 -223.5 -251t-304.5 -85q-249 0 -390 136t-141 405zM260 535 q0 -218 103.5 -325.5t295.5 -107.5q109 0 208.5 46t179 132.5t127 225.5t47.5 311q0 216 -104.5 327t-295.5 111q-88 0 -170 -28t-153.5 -87t-124 -143t-83 -203t-30.5 -259z" />
<glyph unicode="&#x153;" horiz-adv-x="1855" d="M80 420q0 175 47.5 314.5t128 225t180.5 130.5t211 45q303 0 357 -318q56 154 170.5 236t248.5 82q165 0 257 -85t92 -235q0 -169 -134.5 -271t-369.5 -102q-133 0 -224 31q-4 -28 -4 -53q0 -153 84.5 -238.5t239.5 -85.5q216 0 344 172l-18 -153q-122 -148 -349 -148 q-354 0 -417 326q-39 -112 -110 -187t-152.5 -107t-174.5 -32q-186 0 -296.5 112.5t-110.5 340.5zM236 428q0 -166 70 -250t202 -84q168 0 277.5 154t109.5 409q0 351 -268 351q-170 0 -280.5 -158t-110.5 -422zM1047 582q84 -31 190 -31q187 0 284 66t97 192 q0 91 -53.5 145t-157.5 54q-137 0 -239 -112.5t-121 -313.5z" />
<glyph unicode="&#x178;" horiz-adv-x="1112" d="M117 1358h174l287 -625l466 625h156l-569 -760l-84 -598h-156l84 598zM416 1599q0 41 27.5 66t70.5 25q36 0 56 -17t20 -47q0 -42 -26.5 -66t-71.5 -24q-76 0 -76 63zM793 1597q0 42 27 67.5t69 25.5q76 0 76 -64q0 -42 -26 -66t-71 -24q-75 0 -75 61z" />
<glyph unicode="&#x2c6;" horiz-adv-x="1044" d="M338 1247l262 256h96l195 -256h-127l-127 164l-174 -164h-125z" />
<glyph unicode="&#x2dc;" horiz-adv-x="1044" d="M313 1276q17 97 75.5 149t137.5 52q32 0 61.5 -12t45 -23.5t37.5 -32.5q25 -25 43.5 -36t44.5 -11q80 0 98 115h96q-15 -97 -70.5 -149t-133.5 -52q-34 0 -62.5 10.5t-44 22t-37.5 32.5q-42 39 -62 47q-13 5 -28 5q-81 0 -102 -117h-99z" />
<glyph unicode="&#x2000;" horiz-adv-x="925" />
<glyph unicode="&#x2001;" horiz-adv-x="1851" />
<glyph unicode="&#x2002;" horiz-adv-x="925" />
<glyph unicode="&#x2003;" horiz-adv-x="1851" />
<glyph unicode="&#x2004;" horiz-adv-x="617" />
<glyph unicode="&#x2005;" horiz-adv-x="462" />
<glyph unicode="&#x2006;" horiz-adv-x="308" />
<glyph unicode="&#x2007;" horiz-adv-x="308" />
<glyph unicode="&#x2008;" horiz-adv-x="231" />
<glyph unicode="&#x2009;" horiz-adv-x="370" />
<glyph unicode="&#x200a;" horiz-adv-x="102" />
<glyph unicode="&#x2010;" horiz-adv-x="770" d="M119 549l16 131h518l-18 -131h-516z" />
<glyph unicode="&#x2011;" horiz-adv-x="770" d="M119 549l16 131h518l-18 -131h-516z" />
<glyph unicode="&#x2012;" horiz-adv-x="770" d="M119 549l16 131h518l-18 -131h-516z" />
<glyph unicode="&#x2013;" horiz-adv-x="1392" d="M115 555l18 121h1145l-16 -121h-1147z" />
<glyph unicode="&#x2014;" horiz-adv-x="1839" d="M119 555l16 121h1587l-16 -121h-1587z" />
<glyph unicode="&#x2018;" horiz-adv-x="425" d="M190 1116q0 87 60 188t117 156l69 -12q-30 -43 -60.5 -110.5t-41.5 -125.5q49 -15 49 -71q0 -48 -33.5 -78.5t-79.5 -30.5q-37 0 -58.5 22.5t-21.5 61.5z" />
<glyph unicode="&#x2019;" horiz-adv-x="417" d="M176 1040q31 44 61.5 111.5t41.5 124.5q-50 15 -50 72q0 48 33.5 78t79.5 30q37 0 58.5 -22.5t21.5 -61.5q0 -87 -59.5 -188t-116.5 -156z" />
<glyph unicode="&#x201a;" horiz-adv-x="417" d="M-10 -236q30 43 60.5 110.5t41.5 125.5q-49 15 -49 72q0 48 33.5 78t79.5 30q37 0 58.5 -22.5t21.5 -61.5q0 -87 -60 -188t-117 -156z" />
<glyph unicode="&#x201c;" horiz-adv-x="692" d="M190 1116q0 87 60 188t117 156l69 -12q-30 -43 -60.5 -110.5t-41.5 -125.5q49 -15 49 -71q0 -48 -33.5 -78.5t-79.5 -30.5q-37 0 -58.5 22.5t-21.5 61.5zM457 1116q0 87 59.5 188t116.5 156l69 -12q-30 -43 -60.5 -110.5t-41.5 -125.5q49 -15 49 -71q0 -48 -33 -78.5 t-79 -30.5q-37 0 -58.5 22.5t-21.5 61.5z" />
<glyph unicode="&#x201d;" horiz-adv-x="686" d="M176 1040q31 44 61.5 111.5t41.5 124.5q-50 15 -50 72q0 48 33.5 78t79.5 30q37 0 58.5 -22.5t21.5 -61.5q0 -87 -59.5 -188t-116.5 -156zM444 1040q31 44 61.5 111.5t41.5 124.5q-49 15 -49 72q0 48 33 78t79 30q37 0 58.5 -22.5t21.5 -61.5q0 -87 -59.5 -188 t-116.5 -156z" />
<glyph unicode="&#x201e;" horiz-adv-x="684" d="M-10 -236q30 43 60.5 110.5t41.5 125.5q-49 15 -49 72q0 48 33.5 78t79.5 30q37 0 58.5 -22.5t21.5 -61.5q0 -87 -60 -188t-117 -156zM256 -236q30 43 60.5 110.5t41.5 125.5q-49 15 -49 72q0 48 33.5 78t79.5 30q37 0 58.5 -22.5t21.5 -61.5q0 -87 -59.5 -188 t-116.5 -156z" />
<glyph unicode="&#x2022;" horiz-adv-x="552" d="M131 674q0 80 52 136t128 56q62 0 100 -38t38 -99q0 -78 -54 -132t-129 -54q-62 0 -98.5 36t-36.5 95z" />
<glyph unicode="&#x2026;" horiz-adv-x="1073" d="M10 53q0 49 34 84t81 35q38 0 61 -23.5t23 -60.5q0 -51 -33 -85t-82 -34q-39 0 -61.5 23.5t-22.5 60.5zM367 53q0 49 34 84t80 35q38 0 62 -23.5t24 -60.5q0 -50 -34 -84.5t-80 -34.5q-39 0 -62.5 23.5t-23.5 60.5zM723 53q0 49 34.5 84t80.5 35q38 0 61 -23.5t23 -60.5 q0 -51 -32.5 -85t-80.5 -34q-40 0 -63 23t-23 61z" />
<glyph unicode="&#x202f;" horiz-adv-x="370" />
<glyph unicode="&#x2039;" horiz-adv-x="667" d="M55 508q141 134 240 248.5t180 238.5h141q-164 -247 -407 -487q152 -210 268 -508h-141q-101 272 -281 508z" />
<glyph unicode="&#x203a;" horiz-adv-x="667" d="M20 0q191 292 412 508q-184 249 -272 487h141q45 -124 112 -238.5t171 -248.5q-249 -238 -422 -508h-142z" />
<glyph unicode="&#x205f;" horiz-adv-x="462" />
<glyph unicode="&#x20ac;" horiz-adv-x="1216" d="M61 508l13 82h116q3 42 21 141h-117l10 82h127q39 131 109.5 233.5t155.5 164t176 93t182 31.5q228 0 320 -116l-25 -183q-42 83 -119 120.5t-194 37.5q-154 0 -273 -96.5t-174 -284.5h514l-12 -82h-522q-15 -82 -17 -141h520l-12 -82h-512v-19q0 -383 334 -383 q234 0 356 154l-22 -172q-135 -123 -354 -123q-106 0 -191 28.5t-150 88t-100 158.5t-35 233v35h-125z" />
<glyph unicode="&#x2122;" horiz-adv-x="1898" d="M201 1257l14 101h678l-12 -101h-277l-96 -667h-125l96 667h-278zM920 590l108 768h109l245 -387l342 387h109l-109 -768h-120l84 588l-314 -351h-33l-219 351l-84 -588h-118z" />
<glyph unicode="&#x25fc;" horiz-adv-x="1105" d="M0 0v1106h1106v-1106h-1106z" />
</font>
</defs>
</svg>
